<svg id="svg-source" height="0" version="1.1" 
  xmlns="http://www.w3.org/2000/svg" style="position:absolute; margin-left: -100%" 
  xmlns:xlink="http://www.w3.org/1999/xlink">
  <g id="graph" data-iconmelon="Brainy Icons:177122b61442667b50428322d152eebe">
    <path fill-rule="evenodd" clip-rule="evenodd" d="M31.673,25.791c-0.091-0.067-0.199-0.145-0.306-0.155
	c-0.562-0.058-1.044-0.342-1.555-0.539c-0.627-0.241-1.274-0.384-1.938-0.468c-0.082-0.011-0.17,0.003-0.252,0.021
	c-0.25,0.054-0.368,0.347-0.219,0.545c0.068,0.092,0.142,0.189,0.234,0.252c0.361,0.242,0.719,0.491,1.139,0.627
	c0.221,0.071,0.438,0.155,0.654,0.235c0.024,0.009,0.064,0.046,0.062,0.049c-0.029,0.048-0.055,0.114-0.1,0.136
	c-0.182,0.088-0.371,0.16-0.557,0.242c-0.126,0.057-0.229,0.026-0.293-0.089c-0.238-0.431-0.596-0.579-1.086-0.556
	c-0.607,0.028-1.219-0.024-1.828-0.018c-0.958,0.012-1.918,0.001-2.872,0.077c-1.561,0.125-3.122,0.227-4.687,0.272
	c-0.871,0.025-1.741,0.018-2.612,0.025c-0.203,0.001-0.407,0.004-0.61,0c-0.322-0.006-0.341-0.031-0.296-0.328
	c0.069-0.458,0.167-0.916,0.197-1.376c0.075-1.128,0.148-2.258,0.167-3.389c0.03-1.857,0.029-3.715,0.012-5.573
	c-0.004-0.469,0.07-0.856,0.471-1.137c0.143-0.1,0.27-0.22,0.406-0.327c0.074-0.059,0.192-0.018,0.197,0.065
	c0.008,0.115,0.02,0.231,0.013,0.345c-0.048,0.752-0.133,1.503-0.145,2.256c-0.034,2.322-0.042,4.644-0.058,6.966
	c-0.004,0.614,0.161,1.205,0.272,1.802c0.015,0.081,0.073,0.155,0.117,0.229c0.013,0.021,0.046,0.047,0.062,0.043
	c0.024-0.007,0.05-0.034,0.061-0.059c0.045-0.106,0.103-0.211,0.125-0.323c0.222-1.079,0.439-2.158,0.439-3.268
	c0-0.551-0.013-1.107,0.044-1.653c0.109-1.044,0.114-2.092,0.043-3.13c-0.07-1.015-0.062-2.029-0.114-3.042
	c-0.014-0.26-0.005-0.522,0.004-0.783c0.002-0.044,0.051-0.09,0.087-0.127c0.009-0.008,0.06,0.01,0.078,0.028
	c0.249,0.243,0.507,0.479,0.741,0.735c0.223,0.242,0.344,0.527,0.309,0.873c-0.054,0.519-0.119,1.039-0.123,1.559
	c-0.021,2.293-0.032,4.586-0.018,6.88c0.003,0.517,0.117,1.034,0.193,1.55c0.021,0.141,0.088,0.275,0.139,0.411
	c0.053,0.14,0.131,0.285,0.296,0.255c0.092-0.017,0.209-0.123,0.239-0.213c0.118-0.355,0.262-0.716,0.295-1.083
	c0.082-0.895,0.139-1.794,0.149-2.692c0.024-2.146-0.04-4.29-0.242-6.429c-0.009-0.09,0.075-0.253,0.15-0.277
	c0.332-0.106,0.53-0.307,0.655-0.634c0.12-0.313,0.418-0.465,0.709-0.604c0.075-0.036,0.116-0.017,0.126,0.063
	c0.011,0.086,0.028,0.172,0.028,0.258c0.01,2.438,0.041,4.877,0.015,7.315c-0.011,0.982-0.146,1.964-0.225,2.947
	c-0.009,0.115-0.044,0.229-0.039,0.343c0.007,0.204,0.236,0.434,0.45,0.475c0.234,0.044,0.464-0.081,0.538-0.333
	c0.065-0.22,0.104-0.451,0.126-0.679c0.037-0.404,0.025-0.814,0.08-1.216c0.168-1.237,0.228-2.484,0.256-3.727
	c0.045-1.913,0.057-3.829-0.105-5.741c-0.078-0.933-0.038-0.936,0.646-1.562c0.021-0.02,0.041-0.043,0.065-0.058
	c0.119-0.075,0.24-0.147,0.36-0.22c0.148,0.153,0.056,0.32,0.03,0.485c-0.022,0.143-0.045,0.286-0.052,0.431
	c-0.067,1.507-0.146,3.013-0.194,4.521c-0.038,1.189-0.048,2.38-0.054,3.57c-0.004,0.841,0.026,1.683,0.032,2.525
	c0.003,0.412,0.091,0.806,0.216,1.193c0.086,0.264,0.274,0.459,0.385,0.415c0.177-0.072,0.254-0.228,0.312-0.396
	c0.191-0.553,0.258-1.131,0.279-1.708c0.072-2.029,0.135-4.06,0.17-6.09c0.03-1.771,0.017-3.542,0.022-5.313
	c0.001-0.203-0.011-0.407,0.006-0.609c0.009-0.11,0.033-0.25,0.105-0.319c0.353-0.342,0.722-0.666,1.091-0.988
	c0.016-0.014,0.121,0.033,0.129,0.065c0.025,0.109,0.039,0.226,0.034,0.338c-0.027,0.579-0.083,1.157-0.089,1.736
	c-0.018,1.422-0.016,2.845-0.014,4.267c0.002,1.452,0.05,2.904,0.012,4.354c-0.039,1.453,0.217,2.895,0.104,4.347
	c-0.002,0.029,0.003,0.058,0.006,0.087c0.022,0.198,0.23,0.346,0.447,0.316c0.238-0.031,0.397-0.186,0.433-0.471
	c0.089-0.719,0.221-1.43,0.217-2.161c-0.019-3.948-0.021-7.896-0.031-11.844c0-0.494-0.002-0.988-0.035-1.48
	c-0.028-0.435-0.076-0.859,0.102-1.279c0.09-0.21-0.027-0.404-0.191-0.536c-0.19-0.154-0.412-0.221-0.643-0.071
	c-0.293,0.188-0.594,0.366-0.869,0.576c-1.318,1.011-2.455,2.219-3.571,3.437c-0.628,0.686-1.314,1.311-1.94,1.996
	c-0.12,0.132-0.259,0.117-0.367-0.017c-0.328-0.405-0.651-0.815-0.987-1.215c-0.246-0.292-0.546-0.525-0.905-0.659
	c-0.41-0.152-0.787-0.128-1.111,0.228c-0.507,0.558-1.034,1.099-1.551,1.649c-0.635,0.677-1.254,1.369-1.905,2.03
	c-0.258,0.261-0.482,0.583-0.865,0.696c-0.24-0.206-0.487-0.404-0.72-0.619c-0.381-0.352-0.877-0.557-1.211-0.974
	c-0.076-0.094-0.256-0.127-0.393-0.145c-0.251-0.031-0.432,0.113-0.61,0.277c-0.555,0.511-1.108,1.023-1.686,1.509
	c-0.665,0.561-1.353,1.094-2.033,1.637c-0.118,0.094-0.244,0.047-0.259-0.087c-0.008-0.058-0.013-0.116-0.015-0.173
	c-0.058-1.624-0.115-3.247-0.181-5.112c-0.062-1.265-0.136-2.771-0.213-4.277c-0.008-0.144-0.043-0.286-0.061-0.43
	C4.199,7.363,4.235,7.332,4.461,7.355c0.58,0.061,0.844-0.185,0.768-0.718C5.212,6.523,5.186,6.409,5.151,6.299
	C4.936,5.608,4.686,4.925,4.509,4.226c-0.174-0.69-0.544-1.339-0.406-2.103C4.162,1.79,3.83,1.46,3.486,1.382
	c-0.307-0.07-0.65,0.077-0.808,0.38C2.572,1.966,2.475,2.187,2.437,2.411c-0.179,1.06-0.501,2.082-0.808,3.108
	C1.566,5.734,1.539,5.98,1.572,6.201c0.089,0.616,0.409,0.791,1.051,0.62C2.65,6.813,2.684,6.78,2.7,6.787
	c0.067,0.032,0.175,0.064,0.186,0.115c0.032,0.139,0.026,0.287,0.029,0.432c0.041,2.233,0.038,4.467,0.14,6.7
	c0.146,3.188,0.016,6.384,0.193,9.573c0.014,0.265-0.002,0.521-0.137,0.759c-0.146,0.261-0.176,0.55-0.183,0.843
	c-0.004,0.174-0.007,0.348-0.012,0.522c-0.017,0.631-0.035,0.654-0.624,0.666c-0.406,0.008-0.813,0.016-1.22,0.009
	c-0.415-0.007-0.718,0.188-0.97,0.494c-0.149,0.182-0.135,0.373,0.029,0.541c0.176,0.182,0.392,0.235,0.633,0.233
	c0.551-0.003,1.103-0.009,1.654-0.004c0.291,0.003,0.367,0.078,0.371,0.354c0.006,0.493-0.002,0.987,0.002,1.48
	c0.002,0.173,0,0.351,0.035,0.518c0.083,0.403,0.351,0.618,0.729,0.612c0.345-0.005,0.585-0.194,0.682-0.559
	c0.037-0.138,0.05-0.286,0.053-0.429c0.008-0.319,0-0.638,0.004-0.958c0.002-0.26,0.001-0.521,0.025-0.78
	c0.006-0.061,0.109-0.159,0.168-0.161c0.23-0.004,0.462,0.035,0.693,0.037c1.276,0.014,2.555,0.041,3.831,0.027
	c4.091-0.042,8.185,0.171,12.272-0.144c1.214-0.094,2.426-0.219,3.646-0.223c0.607-0.002,1.215-0.058,1.823-0.083
	c0.231-0.01,0.464-0.007,0.696-0.001c0.133,0.003,0.209,0.081,0.205,0.218c-0.002,0.057-0.032,0.112-0.037,0.169
	c-0.055,0.541,0.223,0.86,0.725,0.82c0.171-0.013,0.353-0.04,0.506-0.112c0.862-0.411,1.774-0.723,2.562-1.283
	c0.117-0.084,0.248-0.154,0.35-0.255C32.111,26.57,32.072,26.087,31.673,25.791z M8,25.224c0,0.26,0.036,0.52,0.054,0.78
	c0.009,0.131,0.173,0.272,0.009,0.386c-0.084,0.059-0.217,0.066-0.328,0.068c-0.464,0.007-0.929,0.002-1.394,0.002v-0.024
	c-0.522,0-1.045,0.005-1.567-0.002c-0.221-0.004-0.298-0.106-0.287-0.335c0.003-0.058,0.005-0.116,0.015-0.173
	c0.279-1.671,0.164-3.358,0.203-5.039c0.006-0.262-0.001-0.522,0.001-0.784c0.002-0.183,0.051-0.341,0.23-0.432
	c0.23-0.116,0.459-0.237,0.688-0.357c0.227,0.25,0.105,0.549,0.098,0.823c-0.036,1.305-0.09,2.609-0.135,3.913
	c-0.007,0.203-0.024,0.413,0.017,0.608c0.034,0.16,0.119,0.329,0.23,0.45c0.222,0.243,0.68,0.152,0.798-0.151
	c0.062-0.157,0.104-0.335,0.102-0.503c-0.014-0.985,0.018-1.97-0.08-2.956c-0.088-0.894-0.063-1.798-0.093-2.698
	c-0.007-0.221,0.077-0.387,0.245-0.527c0.379-0.316,0.75-0.642,1.127-0.96c0.041-0.035,0.104-0.044,0.157-0.065
	c0.027,0.077,0.081,0.155,0.079,0.232c-0.01,0.551-0.025,1.104-0.051,1.654c-0.033,0.695-0.102,1.389-0.111,2.083
	C7.986,22.553,7.995,23.888,8,25.224z M9.951,17.745c-0.053,0.984-0.047,1.971-0.064,2.957c0,0.667,0.003,1.334-0.002,2.001
	c-0.004,0.637-0.014,1.271-0.09,1.908c-0.064,0.541-0.105,1.098,0.021,1.645c0.01,0.042-0.008,0.128-0.034,0.138
	c-0.277,0.105-0.56,0.104-0.837,0.001c-0.036-0.013-0.077-0.093-0.069-0.133c0.232-1.148,0.143-2.311,0.133-3.467
	c-0.01-1.274-0.087-2.547-0.127-3.821c-0.016-0.492-0.012-0.986-0.015-1.479c-0.002-0.261,0.01-0.518-0.134-0.759
	c-0.093-0.157,0.028-0.267,0.146-0.355c0.145-0.109,0.27-0.049,0.385,0.056c0.085,0.078,0.159,0.169,0.249,0.242
	C9.855,16.955,9.975,17.294,9.951,17.745z M13.862,17.351c-0.038,0.461-0.087,0.921-0.137,1.381
	c-0.151,1.413-0.146,2.834-0.201,4.252c-0.013,0.317-0.061,0.633-0.091,0.95c-0.057,0.612,0.094,1.211,0.113,1.817
	c0.006,0.218,0.23,0.487,0.024,0.633c-0.161,0.113-0.442,0.066-0.671,0.07c-0.521,0.009-1.044,0.009-1.565,0.006
	c-0.448-0.002-0.437-0.005-0.411-0.524c0.025-0.521,0.033-1.043,0.033-1.565c0.002-1.797-0.004-3.594-0.007-5.391
	c0-0.232-0.009-0.464,0.004-0.695c0.004-0.068,0.032-0.183,0.161-0.125c0.053,0.023,0.103,0.052,0.156,0.074
	c0.21,0.086,0.486,0.115,0.617,0.269c0.193,0.228,0.094,0.562,0.054,0.839c-0.122,0.836-0.083,1.678-0.128,2.516
	c-0.033,0.606-0.089,1.212-0.112,1.818c-0.023,0.605-0.105,1.217,0.112,1.809c0.068,0.188,0.195,0.283,0.388,0.29
	c0.188,0.007,0.341-0.064,0.433-0.23c0.057-0.101,0.109-0.209,0.133-0.32c0.046-0.226,0.072-0.456,0.105-0.685
	c0.197-1.382,0.167-2.773,0.188-4.163c-0.018-0.956-0.027-1.913-0.061-2.868c-0.012-0.317,0.064-0.562,0.33-0.749
	c0.141-0.099,0.255-0.236,0.389-0.346c0.03-0.024,0.098-0.013,0.145-0.003c0.018,0.003,0.039,0.049,0.038,0.074
	C13.892,16.773,13.886,17.062,13.862,17.351z"></path>
  </g>
  <g id="calendar" data-iconmelon="Brainy Icons:521bfc96ccaae788da5153d3524427e8">
    <path fill-rule="evenodd" clip-rule="evenodd" d="M22.726,9.01c0.488-0.032,0.978-0.066,1.466-0.084
	c0.252-0.008,0.377,0.128,0.396,0.403c0.014,0.214,0.016,0.429,0.017,0.644c0.02,1.901,0.037,3.803,0.057,5.705
	c0.003,0.245,0.006,0.491,0.023,0.735c0.01,0.135,0.107,0.233,0.237,0.232c0.46-0.003,0.92-0.019,1.379-0.048
	c0.057-0.004,0.146-0.122,0.154-0.193c0.023-0.243,0.021-0.489,0.024-0.734c0.015-1.595,0.021-3.19,0.045-4.785
	c0.026-1.716,0.07-3.432,0.104-5.148c0.01-0.491,0.004-0.981,0.015-1.472c0.007-0.287-0.008-0.605-0.248-0.755
	c-0.434-0.271-0.654-0.844-1.25-0.875c-0.152-0.008-0.306-0.016-0.459-0.019c-0.215-0.003-0.43,0.002-0.645-0.001
	c-0.461-0.009-0.496-0.03-0.6-0.51c-0.063-0.299-0.061-0.615-0.15-0.904c-0.061-0.191-0.195-0.406-0.359-0.506
	c-0.256-0.156-0.58-0.208-0.877-0.127c-0.12,0.032-0.238,0.198-0.288,0.328c-0.062,0.167-0.062,0.36-0.069,0.542
	c-0.01,0.307,0.002,0.613-0.009,0.919c-0.004,0.131-0.086,0.232-0.222,0.247c-0.214,0.022-0.429,0.037-0.643,0.037
	c-0.608,0-0.817,0.088-0.846-0.727c-0.011-0.269-0.115-0.537-0.192-0.802c-0.043-0.145-0.1-0.294-0.186-0.418
	c-0.257-0.37-0.649-0.456-1.06-0.408c-0.349,0.041-0.371,0.37-0.433,0.632c-0.049,0.207-0.069,0.422-0.091,0.634
	c-0.021,0.213-0.022,0.428-0.041,0.642c-0.012,0.134-0.088,0.228-0.226,0.246c-0.243,0.033-0.487,0.052-0.73,0.086
	c-0.453,0.062-0.517,0.026-0.635-0.409c-0.04-0.147-0.046-0.306-0.099-0.448c-0.178-0.487-0.314-1.014-0.938-1.136
	c-0.027-0.004-0.055-0.031-0.073-0.055c-0.188-0.26-0.431-0.34-0.718-0.184c-0.257,0.14-0.26,0.399-0.256,0.646
	c0.009,0.521,0.032,1.042,0.045,1.563c0.005,0.233-0.099,0.359-0.306,0.364c-0.398,0.01-0.797,0.013-1.196,0.007
	c-0.253-0.003-0.333-0.067-0.385-0.3c-0.062-0.269-0.092-0.545-0.165-0.81c-0.08-0.292-0.182-0.582-0.298-0.861
	c-0.089-0.215-0.28-0.301-0.513-0.331c-0.459-0.058-0.818,0.202-1.207,0.364c-0.088,0.037-0.167,0.191-0.18,0.3
	c-0.025,0.241-0.006,0.487-0.007,0.732C10.09,2.246,10.1,2.521,10.08,2.795c-0.005,0.067-0.099,0.167-0.166,0.184
	C9.766,3.012,9.609,3.008,9.456,3.007C9.152,3.003,8.85,2.992,8.547,2.984C8.311,2.721,8.451,2.399,8.41,2.106
	C8.401,2.045,8.408,1.982,8.396,1.922c-0.094-0.434-0.282-0.808-0.68-1.046c-0.225-0.134-0.473-0.104-0.68,0.064
	C6.68,1.233,6.517,1.58,6.565,2.063c0.111,1.113,0.13,1.049-1.067,1.125C5.189,3.207,5.101,3.134,5.096,2.84
	C5.091,2.47,5.074,2.105,4.925,1.758c-0.149-0.346-0.55-0.605-0.868-0.561C3.674,1.25,3.396,1.515,3.328,1.917
	c-0.03,0.18-0.024,0.367-0.031,0.55C3.289,2.682,3.295,2.896,3.279,3.11C3.27,3.246,3.177,3.348,3.04,3.332
	C2.368,3.253,1.703,3.378,1.035,3.405c-0.749,0.03-1.127,0.497-1.015,1.229c0.214,1.406,0.146,2.817,0.066,4.223
	c-0.046,0.827-0.069,1.651-0.083,2.479c-0.021,1.35,0.049,2.695,0.145,4.04c0.072,1.008,0.126,2.019,0.227,3.024
	c0.158,1.585,0.312,3.17,0.343,4.764c0.011,0.592,0.151,1.145,0.355,1.693c0.183,0.491,0.556,0.826,0.974,1.057
	c0.758,0.42,1.61,0.63,2.472,0.584c0.678-0.036,1.344,0.015,2.016,0.026c1.043,0.018,2.086,0.005,3.129,0.005v0.047
	c1.012,0,2.024,0.002,3.036-0.001c0.245-0.001,0.498,0.013,0.733-0.04c0.635-0.141,1.278-0.138,1.921-0.179
	c0.55-0.036,1.098-0.095,1.646-0.15c0.132-0.014,0.227-0.097,0.229-0.239c0.004-0.398,0.006-0.796-0.002-1.195
	c-0.003-0.136-0.099-0.221-0.233-0.231c-0.152-0.012-0.306-0.01-0.459-0.006c-0.979,0.028-1.956,0.081-2.935,0.162
	c-1.773,0.148-3.558,0.129-5.333,0.008c-0.704-0.047-1.398-0.127-2.104-0.029c-0.21,0.03-0.431,0.023-0.643,0.003
	c-0.741-0.068-1.2-0.559-1.607-1.113c-0.051-0.069-0.068-0.171-0.077-0.261c-0.123-1.156-0.27-2.312-0.356-3.471
	c-0.106-1.405-0.131-2.817-0.255-4.221C3.16,14.88,3.094,14.15,3.087,13.414c-0.008-0.859-0.009-1.718-0.006-2.577
	c0.003-0.829-0.101-0.866,0.841-0.87c0.121-0.001,0.242-0.025,0.364-0.042c1.518-0.229,3.042-0.334,4.579-0.334
	c1.592,0,3.184,0.042,4.778-0.079c1.587-0.12,3.184-0.13,4.773-0.249c1.22-0.092,2.44-0.22,3.669-0.191
	C22.299,9.078,22.512,9.025,22.726,9.01z M18.703,7.427c-1.225,0.031-2.445,0.114-3.656,0.322c-0.239,0.041-0.489,0.028-0.734,0.031
	c-1.595,0.016-3.189,0.026-4.784,0.041C8.641,7.831,7.756,7.813,6.869,7.943c-0.57,0.083-1.163,0.016-1.745,0.016V8
	C4.572,8,4.02,8.004,3.468,7.999C3.219,7.996,3.114,7.906,3.113,7.683C3.105,6.764,3.105,5.844,3.103,4.924
	c0-0.03-0.001-0.068,0.016-0.089c0.036-0.043,0.079-0.102,0.127-0.11c0.045-0.008,0.134,0.03,0.146,0.067
	C3.457,4.993,3.508,5.199,3.56,5.404c0.029,0.119,0.044,0.243,0.079,0.36c0.11,0.369,0.393,0.593,0.728,0.586
	c0.33-0.008,0.645-0.236,0.749-0.579c0.072-0.233,0.108-0.478,0.158-0.718c0.027-0.137,0.109-0.221,0.246-0.22
	c0.306,0.001,0.613,0.011,0.918,0.03C6.673,4.878,6.748,4.958,6.785,5.2c0.022,0.15,0.016,0.309,0.062,0.452
	c0.122,0.381,0.52,0.531,0.887,0.353c0.37-0.18,0.702-0.381,0.704-0.87C8.438,4.96,8.586,4.879,8.755,4.873
	C9.062,4.86,9.368,4.85,9.675,4.846c0.384-0.006,0.571-0.019,0.589,0.476c0.006,0.179,0.061,0.363,0.128,0.53
	c0.228,0.558,0.792,0.736,1.271,0.401c0.439-0.308,0.762-0.69,0.849-1.254c0.063-0.41,0.145-0.449,0.533-0.502
	c0.393-0.054,0.787-0.116,1.182-0.159c0.127-0.014,0.237,0.053,0.271,0.193c0.056,0.238,0.101,0.479,0.164,0.715
	c0.04,0.146,0.091,0.293,0.163,0.426c0.156,0.291,0.406,0.458,0.738,0.474c0.347,0.016,0.593-0.18,0.731-0.466
	c0.118-0.243,0.174-0.519,0.231-0.785c0.037-0.178,0.025-0.367,0.045-0.549c0.014-0.137,0.103-0.224,0.232-0.242
	c0.182-0.024,0.367-0.022,0.55-0.04C18.025,4,18.049,4.013,18.141,4.68c0.028,0.211,0.02,0.429,0.049,0.641
	c0.049,0.364,0.328,0.599,0.694,0.603c0.626,0.008,1.204-0.456,1.316-1.066c0.027-0.15,0.018-0.306,0.033-0.458
	c0.021-0.19,0.127-0.311,0.281-0.287c0.392,0.062,0.782,0.134,1.17,0.222c0.065,0.015,0.138,0.126,0.153,0.204
	c0.035,0.179,0.025,0.367,0.057,0.547c0.079,0.447,0.426,0.764,0.875,0.816c0.377,0.044,0.812-0.288,0.944-0.729
	c0.052-0.174,0.068-0.36,0.135-0.527c0.024-0.062,0.145-0.117,0.222-0.118c0.078-0.001,0.178,0.051,0.23,0.112
	c0.055,0.063,0.087,0.165,0.09,0.251c0.022,0.613,0.038,1.227,0.05,1.839c0.005,0.217-0.107,0.328-0.333,0.341
	c-0.184,0.011-0.369,0.018-0.553,0.014c-1.32-0.03-2.629,0.09-3.933,0.294C19.32,7.426,19.01,7.419,18.703,7.427z M31.998,24.364
	c-0.042-1.604-0.521-3.061-1.452-4.371c-0.71-0.996-1.687-1.601-2.857-1.861c-2.197-0.491-4.25-0.049-6.17,1.085
	c-0.208,0.124-0.398,0.283-0.584,0.442c-1.109,0.948-1.763,2.185-2.149,3.561c-0.205,0.734-0.279,1.504-0.172,2.274
	c0.041,0.302,0.085,0.605,0.134,0.906c0.202,1.265,0.687,2.409,1.485,3.41c0.668,0.835,1.522,1.419,2.552,1.713
	c1.169,0.334,2.36,0.324,3.546,0.105c1.002-0.185,1.917-0.618,2.792-1.132c1.269-0.745,2.117-1.82,2.562-3.229
	c0.243-0.771,0.32-1.554,0.313-2.255C31.998,24.731,32.002,24.547,31.998,24.364z M29.982,24.505
	c-0.017,0.818-0.028,1.361-0.154,1.908c-0.213,0.918-0.714,1.62-1.469,2.142c-1.361,0.938-2.863,1.351-4.521,1.16
	c-0.972-0.111-1.717-0.603-2.319-1.341c-0.076-0.093-0.137-0.208-0.172-0.322c-0.168-0.555-0.327-1.113-0.488-1.67
	c-0.033-0.118-0.07-0.237-0.081-0.357c-0.09-1.132-0.127-2.26,0.173-3.374c0.114-0.428,0.308-0.789,0.646-1.08
	c1.201-1.031,2.562-1.651,4.169-1.659c0.275-0.001,0.552-0.004,0.826,0.011c1.156,0.063,2.044,0.577,2.62,1.592
	C29.784,22.526,30.068,23.606,29.982,24.505z M16.25,13.695c0.001-0.007,0.002-0.014,0.003-0.021
	c0.245,0.011,0.489,0.038,0.732,0.031c0.337-0.01,0.591-0.202,0.621-0.441c0.028-0.226-0.171-0.517-0.438-0.641
	c-0.027-0.013-0.057-0.025-0.085-0.034c-0.775-0.244-1.567-0.252-2.362-0.145c-0.225,0.031-0.376,0.197-0.418,0.433
	c-0.054,0.294,0.109,0.575,0.402,0.623C15.217,13.583,15.734,13.632,16.25,13.695z M6.986,12.971
	c-0.118-0.026-0.242-0.031-0.363-0.034c-0.244-0.005-0.488-0.002-0.732-0.002c-0.274,0-0.549-0.005-0.822,0.004
	c-0.121,0.004-0.246,0.022-0.358,0.063c-0.18,0.066-0.306,0.196-0.345,0.394c-0.043,0.227,0.002,0.438,0.195,0.57
	c0.146,0.103,0.324,0.215,0.493,0.224c0.638,0.033,1.278,0.048,1.915,0.024c0.301-0.011,0.543-0.371,0.523-0.657
	C7.474,13.305,7.241,13.027,6.986,12.971z M14.807,17.338c0.291,0.086,0.59,0.144,0.858,0.207c0.461-0.087,0.886-0.147,1.3-0.254
	c0.292-0.074,0.486-0.376,0.46-0.616c-0.03-0.282-0.324-0.534-0.645-0.555c-0.03-0.001-0.062-0.003-0.093,0
	c-0.547,0.056-1.095,0.109-1.642,0.171c-0.088,0.01-0.173,0.059-0.255,0.1c-0.178,0.087-0.283,0.226-0.291,0.432
	C14.492,17.059,14.603,17.278,14.807,17.338z M9.889,14.014c0.542-0.051,1.084-0.1,1.623-0.169c0.145-0.019,0.288-0.089,0.419-0.161
	c0.229-0.126,0.268-0.539,0.06-0.708c-0.113-0.092-0.258-0.171-0.398-0.195c-0.237-0.041-0.483-0.032-0.633-0.04
	c-0.334,0.021-0.579,0.022-0.818,0.056c-0.208,0.029-0.416,0.079-0.615,0.147c-0.264,0.089-0.38,0.288-0.364,0.56
	c0.014,0.241,0.2,0.444,0.458,0.492C9.707,14.011,9.801,14.023,9.889,14.014z M17.164,19.765c-0.03-0.004-0.061-0.007-0.091-0.008
	c-0.612-0.018-1.207,0.109-1.804,0.216c-0.029,0.005-0.057,0.021-0.084,0.033c-0.231,0.094-0.36,0.334-0.319,0.593
	c0.033,0.209,0.205,0.387,0.426,0.414c0.18,0.022,0.362,0.022,0.731,0.042c0.298-0.051,0.779-0.115,1.25-0.219
	c0.289-0.062,0.535-0.391,0.495-0.582C17.723,20.033,17.44,19.804,17.164,19.765z M4.367,21.074
	c0.037,0.172,0.192,0.333,0.379,0.341c0.332,0.016,0.666,0.005,0.999,0.005c0.001,0.008,0.001,0.017,0.001,0.026
	c0.423-0.025,0.849-0.033,1.269-0.081c0.242-0.028,0.453-0.296,0.456-0.503c0.004-0.205-0.204-0.451-0.441-0.52
	c-0.058-0.018-0.118-0.038-0.177-0.038c-0.546,0.001-1.093-0.019-1.635,0.023c-0.227,0.018-0.457,0.15-0.661,0.27
	C4.395,20.694,4.324,20.874,4.367,21.074z M4.62,17.672c0.674,0.278,1.358,0.325,2.046,0.042c0.084-0.034,0.163-0.086,0.23-0.146
	c0.169-0.149,0.275-0.329,0.215-0.566c-0.052-0.201-0.244-0.368-0.465-0.381c-0.213-0.013-0.428-0.002-0.797-0.002
	c-0.301,0.046-0.752,0.104-1.2,0.189c-0.188,0.036-0.287,0.215-0.288,0.417C4.361,17.425,4.437,17.597,4.62,17.672z M20.438,16.982
	c0.412,0.102,0.833,0.167,1.251,0.248c0.003-0.024,0.007-0.048,0.011-0.073c0.244,0,0.491,0.022,0.732-0.005
	c0.261-0.03,0.5-0.326,0.512-0.578c0.012-0.245-0.213-0.535-0.475-0.612c-0.028-0.008-0.058-0.02-0.088-0.023
	c-0.584-0.056-1.164-0.042-1.719,0.171c-0.136,0.052-0.261,0.159-0.364,0.265C20.119,16.558,20.197,16.923,20.438,16.982z
	 M21.763,13.498c0.28-0.015,0.528-0.144,0.731-0.339c0.141-0.136,0.18-0.313,0.124-0.502c-0.048-0.161-0.173-0.263-0.331-0.271
	c-0.334-0.015-0.668-0.005-1.001-0.005c0-0.005-0.001-0.011-0.002-0.016c-0.362,0.027-0.729,0.031-1.087,0.089
	c-0.178,0.029-0.314,0.178-0.354,0.378c-0.042,0.212,0.044,0.46,0.218,0.56c0.104,0.059,0.223,0.123,0.336,0.124
	C20.853,13.524,21.309,13.522,21.763,13.498z M9.904,17.521c0.354,0.087,0.717,0.137,0.865,0.163
	c0.589,0.031,0.955-0.014,1.266-0.228c0.109-0.076,0.195-0.239,0.217-0.375c0.026-0.162-0.115-0.281-0.262-0.333
	c-0.17-0.06-0.352-0.117-0.527-0.119c-0.519-0.008-1.037,0.009-1.556,0.021c-0.089,0.003-0.192,0.013-0.263,0.058
	c-0.096,0.063-0.213,0.155-0.233,0.253c-0.021,0.098,0.04,0.244,0.114,0.322C9.627,17.389,9.766,17.487,9.904,17.521z
	 M11.807,21.209c0.228-0.061,0.449-0.167,0.656-0.284c0.16-0.09,0.178-0.349,0.055-0.478c-0.083-0.087-0.167-0.203-0.272-0.233
	c-0.683-0.2-1.378-0.19-2.06-0.007c-0.305,0.082-0.371,0.541-0.123,0.753c0.132,0.113,0.305,0.21,0.473,0.239
	c0.235,0.04,0.483,0.011,0.727,0.011v0.008C11.444,21.218,11.636,21.253,11.807,21.209z M27.866,24.868
	c-0.199-0.065-0.417-0.09-0.628-0.101c-0.396-0.019-0.795-0.01-1.191-0.02c-0.476-0.012-0.477-0.079-0.398-0.465
	c0.115-0.567,0.185-1.143,0.25-1.718c0.038-0.333,0.039-0.671,0.042-1.007c0.002-0.258-0.077-0.514-0.325-0.611
	c-0.331-0.13-0.647-0.373-1.039-0.257c-0.082,0.024-0.18,0.081-0.221,0.152c-0.105,0.181-0.227,0.371-0.259,0.571
	c-0.05,0.299-0.029,0.609-0.038,0.914c-0.015,0.581-0.018,1.161-0.047,1.74c-0.023,0.457-0.096,0.911-0.117,1.367
	c-0.031,0.661,0.274,1.029,0.936,1.12c0.664,0.09,1.333,0.149,2,0.222c0-0.015,0.002-0.03,0.004-0.045
	c0.274,0,0.552,0.022,0.824-0.005c0.493-0.049,0.82-0.363,0.868-0.796C28.586,25.397,28.37,25.032,27.866,24.868z"></path>
  </g>
  <g id="airplane" data-iconmelon="Brainy Icons:af9ff3f9a25809d7b874a6a86e44f5bb">
    <path fill-rule="evenodd" clip-rule="evenodd" d="M31.694,3.508c-0.099-0.209-0.302-0.316-0.517-0.379
	c-0.209-0.061-0.429-0.084-0.636-0.15c-0.444-0.143-0.858-0.103-1.267,0.129c-1.092,0.621-2.271,1.052-3.429,1.528
	c-1.187,0.488-2.4,0.91-3.599,1.367c-2.781,1.06-5.591,2.029-8.458,2.829c-1.205,0.336-2.395,0.729-3.602,1.059
	c-3.021,0.822-5.992,1.802-8.987,2.708c-0.477,0.145-0.81,0.462-1.107,0.829c-0.17,0.21-0.099,0.609,0.125,0.758
	c0.155,0.103,0.328,0.182,0.498,0.258c0.287,0.126,0.59,0.22,0.865,0.364c1.112,0.584,2.288,1.019,3.452,1.479
	c1.457,0.578,2.876,1.237,4.268,1.961c0.411,0.214,0.626,0.459,0.554,0.948c-0.09,0.619-0.149,1.244-0.187,1.868
	c-0.095,1.564-0.168,3.13-0.267,5.023c0,0.425-0.001,1.178,0,1.931c0,0.125,0,0.252,0.017,0.375
	c0.048,0.353,0.325,0.636,0.677,0.688c0.421,0.063,0.801,0.002,1.131-0.312c0.57-0.543,1.092-1.124,1.522-1.784
	c0.446-0.685,0.961-1.312,1.544-1.889c0.668-0.661,1.299-1.36,1.947-2.042c0.151-0.158,0.289-0.338,0.467-0.46
	c0.113-0.077,0.289-0.093,0.435-0.085c0.117,0.006,0.231,0.087,0.346,0.137c1.264,0.55,2.532,1.089,3.789,1.653
	c1.115,0.501,2.245,0.987,3.235,1.712c0.496,0.362,1.065,0.521,1.604,0.763c0.305,0.136,0.605,0.041,0.866-0.192
	c0.265-0.236,0.441-0.522,0.599-0.833c0.653-1.299,1.075-2.666,1.289-4.104c0.12-0.804,0.246-1.611,0.439-2.399
	c0.306-1.25,0.485-2.52,0.687-3.785c0.197-1.235,0.352-2.477,0.691-3.688c0.238-0.843,0.418-1.702,0.621-2.555
	c0.342-1.434,0.484-2.899,0.678-4.356C32.049,4.389,31.895,3.936,31.694,3.508z M5.683,13.855c-0.007,0.088,0.003,0.217-0.034,0.332
	c-0.022,0.067-0.137,0.171-0.178,0.158c-0.525-0.173-1.045-0.363-1.566-0.552c-0.023-0.009-0.06-0.055-0.058-0.057
	c0.038-0.047,0.073-0.118,0.122-0.13c0.478-0.122,0.955-0.238,1.435-0.345c0.159-0.035,0.273,0.091,0.279,0.278
	C5.686,13.634,5.683,13.727,5.683,13.855z M8.08,12.982c-0.158,0.68-0.14,1.367-0.129,2.056c0,0.059-0.011,0.128-0.043,0.176
	c-0.027,0.042-0.106,0.095-0.136,0.082c-0.253-0.114-0.517-0.218-0.745-0.372c-0.242-0.164-0.363-0.422-0.369-0.726
	c-0.002-0.156-0.013-0.312-0.019-0.441c0.044-0.923-0.02-0.778,0.795-1.028c0.118-0.035,0.246-0.042,0.37-0.054
	C7.946,12.66,8.114,12.833,8.08,12.982z M9.91,16.228c-0.037,0.03-0.115,0.035-0.166,0.019c-0.445-0.145-0.758-0.413-0.84-0.902
	c-0.047-0.275-0.123-0.546-0.163-0.822c-0.088-0.583-0.161-1.168-0.239-1.753c-0.021-0.168,0.062-0.312,0.221-0.359
	c0.299-0.087,0.598-0.168,0.898-0.245c0.225-0.057,0.371,0.068,0.299,0.288c-0.027,0.775-0.06,1.551-0.079,2.327
	c-0.011,0.435-0.02,0.871,0.126,1.293C9.98,16.114,9.948,16.197,9.91,16.228z M13.963,10.925c0.117-0.039,0.242-0.081,0.363-0.078
	c0.073,0.001,0.202,0.079,0.207,0.133c0.029,0.28,0.004,0.566,0.039,0.845c0.031,0.244,0.093,0.491,0.184,0.72
	c0.102,0.258,0.354,0.379,0.608,0.344c0.25-0.035,0.47-0.233,0.475-0.508c0.009-0.53-0.003-1.063-0.04-1.593
	c-0.021-0.323-0.042-0.347,0.27-0.449c0.744-0.246,1.492-0.478,2.234-0.726c0.95-0.317,1.896-0.648,2.847-0.968
	c0.109-0.037,0.228-0.048,0.343-0.068c0-0.01,0.001-0.018-0.001-0.028c0.017-0.001,0.034-0.003,0.052-0.004
	c0.031-0.032,0.062-0.065,0.099-0.093c0.021-0.014,0.058-0.005,0.087-0.007c-0.02,0.028-0.033,0.073-0.059,0.081
	c-0.041,0.013-0.084,0.016-0.127,0.019c-0.01,0.01-0.02,0.02-0.029,0.029c-0.007,0.001-0.014,0.002-0.021,0.003
	c0.008,0.174-0.138,0.249-0.25,0.331c-2.107,1.533-4.082,3.23-6.061,4.922c-0.166,0.143-0.354,0.263-0.518,0.406
	c-0.524,0.458-0.666,0.579-0.928-0.258c-0.064-0.208-0.113-0.427-0.125-0.644c-0.031-0.626-0.047-1.254-0.055-1.881
	C13.553,11.104,13.609,11.044,13.963,10.925z M11,12.241c-0.016-0.319,0.021-0.438,0.377-0.537c0.3-0.083,0.592-0.194,0.889-0.282
	c0.218-0.064,0.356,0.065,0.288,0.297c-0.029,0.684-0.061,1.367-0.087,2.052c-0.021,0.551,0.098,1.045,0.533,1.436
	c0.197,0.177,0.178,0.216-0.008,0.353c-0.3,0.223-0.6,0.446-0.907,0.658c-0.188,0.13-0.3,0.09-0.485-0.084
	c-0.19-0.178-0.303-0.395-0.375-0.635c-0.035-0.118-0.055-0.244-0.062-0.367C11.105,14.168,11.049,13.205,11,12.241z M17.264,18.793
	c-1.138,1.167-2.21,2.391-3.197,3.688c-0.189,0.248-0.401,0.483-0.63,0.696c-0.761,0.706-1.456,1.467-2.029,2.334
	c-0.031,0.048-0.099,0.071-0.149,0.105c-0.032-0.073-0.086-0.145-0.091-0.219c-0.011-0.156,0.007-0.313,0.007-0.47
	c0.002-0.408,0-0.815,0-1.269c0.055-1.362,0.105-2.77,0.174-4.177c0.013-0.245,0.085-0.491,0.155-0.729
	c0.085-0.285,0.282-0.481,0.556-0.6c1.077-0.468,2.004-1.145,2.823-1.982c0.37-0.379,0.751-0.731,1.294-0.896
	c0.28-0.085,0.512-0.349,0.754-0.545c1.36-1.106,2.717-2.219,4.074-3.327c1.338-1.093,2.791-2.017,4.258-2.92
	c0.4-0.247,0.795-0.502,1.193-0.75c0.014-0.009,0.055,0.005,0.069,0.021c0.017,0.02,0.033,0.06,0.024,0.076
	c-0.045,0.082-0.088,0.166-0.146,0.236c-1.438,1.736-2.868,3.48-4.324,5.203c-0.728,0.86-1.512,1.674-2.254,2.521
	c-0.619,0.707-1.213,1.435-1.82,2.151C17.761,18.229,17.525,18.524,17.264,18.793z M29.719,7.586
	c-0.352,1.396-0.73,2.784-1.049,4.188c-0.222,0.975-0.397,1.963-0.529,2.954c-0.171,1.274-0.451,2.525-0.684,3.787
	c-0.062,0.338-0.127,0.676-0.206,1.011c-0.086,0.362-0.145,0.729-0.4,1.039c-0.2,0.243-0.228,0.571-0.271,0.887
	c-0.099,0.712-0.228,1.42-0.35,2.129c-0.026,0.152-0.068,0.305-0.119,0.452c-0.122,0.354-0.229,0.391-0.542,0.221
	c-0.771-0.417-1.539-0.839-2.319-1.236c-0.361-0.185-0.752-0.312-1.122-0.478c-1.095-0.487-2.083-1.151-3.04-1.863
	c-0.199-0.148-0.206-0.258-0.043-0.47c0.726-0.943,1.453-1.886,2.18-2.829c0.037-0.05,0.074-0.102,0.108-0.153
	c0.775-1.184,1.692-2.253,2.64-3.3c0.207-0.23,0.41-0.488,0.531-0.769c0.192-0.445,0.496-0.794,0.808-1.146
	c1.245-1.409,2.484-2.824,3.729-4.234c0.187-0.21,0.392-0.403,0.591-0.603c0.02-0.02,0.062-0.038,0.08-0.029
	c0.023,0.011,0.034,0.05,0.069,0.109C29.764,7.345,29.749,7.467,29.719,7.586z"></path>
  </g>
  <g id="ornithology" data-iconmelon="Brainy Icons:fe0b44ad3260b50fe4a623f9412a5957">
    <path fill-rule="evenodd" clip-rule="evenodd" d="M31.993,19.722c0.038-0.745-0.104-1.468-0.372-2.16
	c-0.256-0.659-0.573-1.292-0.837-1.948c-0.618-1.535-1.651-2.787-2.757-3.973c-0.945-1.013-1.976-1.946-2.97-2.913
	c-0.085-0.082-0.165-0.181-0.267-0.23c-0.239-0.114-0.29-0.263-0.303-0.542c-0.029-0.613-0.178-1.22-0.253-1.833
	C24.178,5.651,24,5.277,23.55,5.068c-0.079-0.037-0.147-0.098-0.217-0.152c-0.915-0.72-1.981-0.878-3.093-0.763
	c-0.611,0.062-1.217,0.216-1.814,0.367c-0.486,0.123-0.953,0.315-1.361,0.619c-0.268,0.199-0.473,0.434-0.492,0.798
	c-0.013,0.233-0.092,0.462-0.124,0.695c-0.085,0.611-0.08,0.613-0.714,0.753c-0.142,0.031-0.285,0.068-0.43,0.074
	c-0.258,0.012-0.466-0.151-0.469-0.419c-0.01-0.878-0.434-1.507-1.136-1.978c-0.244-0.163-0.491-0.327-0.755-0.453
	c-0.182-0.086-0.393-0.142-0.593-0.151c-1.187-0.051-2.36,0.097-3.502,0.39C8.236,5.005,7.761,5.422,7.702,6.15
	C7.679,6.442,7.588,6.728,7.543,7.018C7.479,7.424,7.502,7.863,7.35,8.23c-0.165,0.398-0.502,0.723-0.74,1.095
	c-0.479,0.747-1.018,1.447-1.623,2.095c-0.101,0.108-0.193,0.224-0.283,0.341c-1.242,1.617-2.348,3.324-3.318,5.116
	c-0.209,0.385-0.349,0.812-0.487,1.229c-0.176,0.53-0.31,1.073-0.477,1.605c-0.292,0.931-0.555,1.861-0.346,2.853
	c0.018,0.085,0.003,0.177,0.007,0.265c0.062,1.523,0.787,2.692,1.969,3.595c0.744,0.57,1.623,0.794,2.535,0.961
	c1.2,0.22,2.365,0.107,3.47-0.345c2.251-0.92,3.923-2.47,4.865-4.748c0.045-0.109,0.091-0.219,0.151-0.319
	c0.02-0.032,0.104-0.061,0.135-0.045c0.228,0.115,0.516,0.116,0.643,0.417c0.091,0.212,0.254,0.395,0.398,0.581
	c0.495,0.639,1.639,0.996,2.534,0.273c0.232-0.188,0.465-0.369,0.6-0.64c0.364-0.729,0.349-0.579,1.106-0.594
	c0.177-0.003,0.354,0.002,0.531,0.008c0.131,0.005,0.223,0.074,0.247,0.201c0.05,0.261,0.104,0.521,0.126,0.785
	c0.081,0.932,0.455,1.756,0.881,2.572c0.847,1.625,2.867,2.774,5.121,2.197c0.756-0.193,1.437-0.523,2.087-0.933
	c1.474-0.93,2.612-2.193,3.581-3.625c0.318-0.47,0.555-0.975,0.682-1.525C31.889,21.017,32.033,20.383,31.993,19.722z M17.679,7.268
	c0.882-0.81,1.835-1.47,3.114-1.396c0.206,0.012,0.414-0.009,0.619,0.013c0.719,0.08,1.295,0.373,1.551,1.105
	c0.107,0.304,0.2,0.613,0.307,0.941c-0.03,0.067-0.05,0.15-0.1,0.204c-0.022,0.023-0.111-0.005-0.164-0.024
	c-0.082-0.03-0.16-0.074-0.24-0.112c-0.133-0.062-0.266-0.126-0.4-0.186c-0.961-0.424-1.943-0.432-2.931-0.12
	c-0.483,0.152-0.896,0.439-1.25,0.806c-0.061,0.062-0.13,0.121-0.205,0.162c-0.03,0.016-0.127-0.015-0.13-0.034
	c-0.033-0.229-0.078-0.437-0.234-0.637C17.434,7.76,17.475,7.455,17.679,7.268z M9.283,7.104c0.225-0.286,0.348-0.604,0.392-0.967
	c0.032-0.266,0.243-0.423,0.491-0.437c0.438-0.023,0.883-0.02,1.32,0.017c0.347,0.029,0.682,0.21,1.041,0.075
	c0.527,0.128,1.025,0.33,1.254,0.86c0.159,0.37,0.239,0.772,0.511,1.091c0.054,0.062-0.067,0.271-0.146,0.277
	c-0.059,0.004-0.117,0.007-0.173,0.011c-0.062-0.008-0.121-0.01-0.178-0.024c-0.93-0.219-1.875-0.171-2.818-0.17
	c-0.53,0.001-1.061,0-1.58,0.144c-0.112,0.032-0.225-0.078-0.235-0.2C9.142,7.546,9.124,7.306,9.283,7.104z M11.723,20.989
	c-0.387,1.385-1.213,2.479-2.281,3.403c-0.447,0.386-0.947,0.699-1.471,0.979C7.2,25.783,6.365,26,5.512,26.013
	c-1.045,0.016-2.051-0.226-2.889-0.923c-0.303-0.252-0.532-0.541-0.582-0.955c-0.031-0.262-0.115-0.517-0.175-0.775
	c-0.054-0.229-0.132-0.456-0.155-0.688c-0.027-0.263-0.007-0.531-0.007-0.796c0.003,0,0.005,0,0.007,0c0-0.236,0-0.472,0.001-0.708
	c0.003-0.371,0.085-0.7,0.436-0.908c0.072-0.043,0.142-0.119,0.175-0.196c0.229-0.547,0.699-0.856,1.138-1.207
	c0.46-0.367,0.901-0.76,1.334-1.16c0.241-0.224,0.503-0.403,0.801-0.542c0.979-0.455,2.003-0.677,3.086-0.636
	c0.478,0.019,0.936,0.122,1.384,0.263c0.923,0.292,1.438,0.981,1.74,1.859C12.078,19.435,11.939,20.212,11.723,20.989z
	 M20.263,16.104c-0.305,0.57-0.583,1.158-0.833,1.755c-0.32,0.767-0.467,1.578-0.537,2.405c-0.023,0.277-0.105,0.353-0.393,0.351
	c-0.295-0.002-0.59-0.024-0.885-0.036c-0.177-0.008-0.354-0.025-0.529-0.016c-0.223,0.014-0.393,0.131-0.482,0.337
	c-0.07,0.162-0.109,0.338-0.188,0.496c-0.091,0.183-0.187,0.372-0.319,0.524c-0.317,0.366-0.81,0.295-1.013-0.136
	c-0.061-0.132-0.075-0.284-0.129-0.421c-0.15-0.38-0.393-0.501-0.766-0.383c-0.196,0.062-0.387,0.143-0.581,0.21
	c-0.333,0.116-0.408,0.054-0.323-0.319c0.27-1.176,0.01-2.28-0.453-3.353c-0.14-0.323-0.37-0.61-0.498-0.937
	c-0.284-0.73-0.916-0.933-1.577-1.104c-0.284-0.074-0.6-0.077-0.856-0.203c-0.336-0.166-0.68-0.168-1.031-0.195
	c-1.578-0.127-3.04,0.242-4.412,1.017c-0.188,0.106-0.354,0.309-0.61,0.232c-0.003,0.004-0.005,0.009-0.007,0.013
	c-0.016,0.006-0.03,0.014-0.045,0.021c-0.014,0.023-0.026,0.046-0.04,0.069c0.003-0.019-0.001-0.045,0.01-0.055
	c0.009-0.007,0.02-0.009,0.03-0.014c0.008-0.014,0.016-0.028,0.023-0.042c0.01,0.004,0.019,0.004,0.028,0.007
	c0.416-0.771,0.838-1.539,1.247-2.313c0.178-0.336,0.448-0.54,0.809-0.632c0.457-0.116,0.908-0.252,1.388-0.248
	c0.358,0.004,0.701-0.078,1.013-0.267c0.124-0.075,0.144-0.312,0.018-0.375C8.14,12.4,7.951,12.315,7.756,12.266
	c-0.169-0.043-0.352-0.032-0.527-0.049c-0.028-0.002-0.055-0.021-0.082-0.033c0.037-0.021,0.071-0.056,0.109-0.06
	c0.353-0.031,0.707-0.048,1.059-0.087c0.291-0.032,0.582-0.077,0.87-0.137c0.194-0.041,0.317-0.207,0.32-0.373
	c0.004-0.198-0.089-0.358-0.258-0.428c-0.243-0.101-0.5-0.171-0.757-0.229c-0.141-0.032-0.295,0.001-0.441-0.016
	c-0.074-0.009-0.143-0.063-0.213-0.098c0.081-0.026,0.163-0.073,0.245-0.074c0.501-0.008,1.003-0.019,1.491,0.137
	c0.168,0.054,0.345,0.082,0.52,0.108c0.146,0.023,0.391-0.115,0.445-0.235c0.062-0.133,0.02-0.396-0.09-0.497
	c-0.219-0.204-0.463-0.365-0.768-0.41c-0.146-0.022-0.293-0.038-0.437-0.07C9.125,9.69,9,9.61,9.035,9.488
	C9.06,9.399,9.185,9.294,9.28,9.275c1.108-0.216,2.228-0.211,3.348-0.123c0.265,0.02,0.526,0.071,0.788,0.114
	c0.126,0.021,0.183,0.152,0.112,0.277c-0.174,0.308-0.351,0.614-0.536,0.916c-0.479,0.785-0.842,1.62-1.095,2.505
	c-0.091,0.317-0.129,0.635-0.088,0.961c0.024,0.188,0.13,0.329,0.299,0.411c0.104,0.051,0.222,0.078,0.332,0.118
	c0.508,0.188,0.813,0.064,0.931-0.448c0.224-0.98,0.583-1.916,0.914-2.86c0.096-0.277,0.233-0.54,0.355-0.808
	c0.056-0.124,0.148-0.148,0.285-0.125c0.258,0.045,0.52,0.075,0.781,0.094c0.205,0.015,0.414-0.008,0.619,0.006
	c0.692,0.049,0.849,0.162,1.049,0.828c0.201,0.674,0.488,1.33,0.471,2.057c-0.002,0.083,0.033,0.175,0.076,0.25
	c0.181,0.315,0.25,0.655,0.294,1.011c0.029,0.231,0.106,0.461,0.188,0.681c0.063,0.173,0.204,0.285,0.392,0.325
	c0.158,0.033,0.307,0.006,0.39-0.133c0.105-0.176,0.216-0.361,0.261-0.557c0.076-0.345,0.312-0.47,0.61-0.559
	c0.253-0.076,0.503-0.163,0.744-0.269c0.173-0.075,0.258-0.281,0.218-0.441c-0.05-0.193-0.189-0.295-0.372-0.332
	c-0.394-0.08-0.758,0.034-1.119,0.175c-0.222,0.087-0.341,0.031-0.407-0.16c-0.086-0.245-0.025-0.429,0.195-0.505
	c0.445-0.152,0.898-0.283,1.346-0.432c0.221-0.074,0.448-0.147,0.651-0.259c0.288-0.159,0.282-0.568,0.003-0.73
	c-0.126-0.073-0.27-0.116-0.402-0.18c-0.113-0.054-0.32,0.026-0.327-0.162c-0.003-0.067,0.179-0.132,0.261-0.213
	c0.176-0.173,0.156-0.361-0.021-0.533c-0.159-0.152-0.343-0.219-0.557-0.232c-0.542-0.034-1.055,0.072-1.553,0.282
	c-0.073,0.031-0.175,0.046-0.247,0.021c-0.179-0.062-0.29-0.577-0.151-0.69c0.58-0.475,1.213-0.82,1.99-0.856
	c0.665-0.031,1.293,0.057,1.875,0.396c0.152,0.09,0.309,0.173,0.468,0.25c0.314,0.151,0.606,0.156,0.911-0.067
	c0.229-0.168,0.312-0.14,0.462,0.003c0.724,0.693,1.442,1.392,2.173,2.078c0.541,0.508,1.02,1.064,1.417,1.691
	c0.095,0.149,0.226,0.278,0.301,0.436c0.079,0.166,0.342,0.237,0.256,0.487c-0.169-0.033-0.339-0.067-0.508-0.098
	c-0.231-0.042-0.463-0.089-0.696-0.122c-0.617-0.09-1.236-0.104-1.849,0.021c-0.722,0.147-1.442,0.297-2.156,0.475
	c-0.545,0.135-1.061,0.357-1.536,0.664C20.943,15.22,20.531,15.604,20.263,16.104z M18.749,11.525
	c0.003-0.026,0.011-0.062,0.028-0.075c0.387-0.275,0.81-0.442,1.282-0.429c0.063,0.024,0.116,0.044,0.17,0.064
	c-0.017,0.018-0.028,0.045-0.047,0.052c-0.456,0.18-0.912,0.358-1.369,0.532c-0.009,0.003-0.04-0.041-0.052-0.065
	C18.751,11.581,18.746,11.551,18.749,11.525z M30.411,20.684c-0.056,0.534-0.236,1.036-0.532,1.487
	c-0.967,1.476-2.143,2.738-3.703,3.609c-0.662,0.369-1.359,0.55-2.118,0.521c-0.953-0.037-1.71-0.444-2.238-1.225
	c-0.781-1.154-1.175-2.436-1.147-3.93c-0.02-1.235,0.32-2.47,0.96-3.63c0.162-0.294,0.372-0.514,0.657-0.694
	c1.034-0.656,2.165-1.112,3.35-1.338c1.333-0.254,2.592,0.014,3.537,1.12c0.151,0.178,0.279,0.378,0.402,0.579
	c0.125,0.2,0.195,0.442,0.347,0.615c0.42,0.479,0.521,1.048,0.527,1.648C30.456,19.858,30.453,20.273,30.411,20.684z M16.491,16.873
	c-0.372-0.248-0.818-0.36-1.262-0.302c-0.511,0.067-0.973,0.288-1.173,0.811c-0.091,0.238-0.093,0.51-0.135,0.767
	c0.015,0.002,0.028,0.005,0.043,0.007c0,0.117,0.007,0.235-0.002,0.352c-0.034,0.506,0.215,0.835,0.648,1.05
	c0.131,0.065,0.27,0.116,0.4,0.18c0.412,0.202,0.809,0.125,1.177-0.096c0.443-0.267,0.776-0.656,0.885-1.162
	C17.227,17.767,17.174,17.328,16.491,16.873z M15.964,18.253c-0.057,0.197-0.138,0.381-0.323,0.492
	c-0.047,0.027-0.125,0.058-0.157,0.038c-0.062-0.039-0.119-0.108-0.144-0.177c-0.027-0.078-0.016-0.17-0.021-0.261
	c0.014-0.082,0.023-0.168,0.043-0.251c0.023-0.101,0.225-0.178,0.368-0.147C15.886,17.98,16,18.127,15.964,18.253z M15.105,14.375
	c0.172,0.031,0.348,0.039,0.447,0.048c0.223,0,0.369-0.002,0.516,0.002c0.024,0,0.048,0.025,0.072,0.04
	c-0.025,0.016-0.048,0.042-0.074,0.047c-0.322,0.046-0.632,0.125-0.908,0.307c-0.09,0.06-0.11,0.22-0.046,0.316
	c0.146,0.217,0.353,0.328,0.604,0.281c0.287-0.054,0.571-0.134,0.847-0.232c0.236-0.084,0.287-0.383,0.119-0.583
	c-0.035-0.043-0.1-0.062-0.141-0.103c-0.116-0.117-0.104-0.178,0.034-0.257c0.15-0.085,0.309-0.162,0.444-0.266
	c0.108-0.083,0.109-0.298,0.012-0.403c-0.076-0.085-0.166-0.193-0.267-0.216c-0.624-0.139-1.23-0.083-1.791,0.244
	c-0.132,0.077-0.185,0.224-0.174,0.382C14.812,14.158,14.947,14.346,15.105,14.375z M15.331,13.124
	c0.462-0.048,0.921-0.133,1.378-0.217c0.078-0.015,0.15-0.087,0.217-0.142c0.201-0.165,0.199-0.423,0.018-0.613
	c-0.225-0.234-0.502-0.278-0.816-0.26c-0.414-0.018-0.794,0.111-1.131,0.371c-0.211,0.164-0.248,0.518-0.048,0.695
	C15.049,13.048,15.209,13.137,15.331,13.124z M25.597,24.051c-0.337-0.097-0.678-0.188-1.022-0.242
	c-0.838-0.128-1.258-0.486-1.434-1.318c-0.091-0.428-0.127-0.867-0.164-1.129c0.04-0.355,0.072-0.529,0.076-0.705
	c0.006-0.208-0.18-0.415-0.365-0.435c-0.22-0.024-0.422,0.08-0.514,0.266c-0.025,0.053-0.062,0.106-0.066,0.161
	c-0.045,0.669-0.197,1.323-0.066,2.012c0.256,1.344,1.055,2.152,2.397,2.309c0.501,0.059,0.929-0.083,1.255-0.486
	C25.815,24.331,25.779,24.104,25.597,24.051z M7.246,23.309c-0.289,0.025-0.578,0.09-0.861,0.164
	c-0.417,0.109-0.824,0.035-1.211-0.089c-0.559-0.179-0.995-0.539-1.137-1.128c-0.096-0.396-0.097-0.816,0.027-1.22
	c0.042-0.14,0.096-0.276,0.124-0.419c0.036-0.176-0.069-0.326-0.248-0.418c-0.153-0.077-0.292-0.046-0.406,0.055
	c-0.108,0.095-0.22,0.204-0.282,0.332c-0.395,0.789-0.502,2.083,0.271,2.987c0.657,0.768,1.483,1.124,2.558,1.094
	c0.413,0.034,0.865-0.084,1.27-0.344c0.141-0.09,0.264-0.234,0.347-0.379c0.091-0.158,0.086-0.364-0.055-0.491
	C7.543,23.362,7.376,23.298,7.246,23.309z"></path>
  </g>
  <g id="professor" data-iconmelon="Brainy Icons:425e17fd4977c7d1acd04b64f0b19ca2">
    <path fill-rule="evenodd" clip-rule="evenodd" d="M28.373,24.841c-0.267-0.307-0.558-0.583-0.915-0.792
	c-0.807-0.472-1.612-0.949-2.408-1.441c-0.369-0.228-0.758-0.452-1.057-0.757c-0.271-0.28-0.566-0.475-0.914-0.621
	c-0.921-0.385-1.834-0.79-2.762-1.156c-0.305-0.121-0.555-0.261-0.709-0.558c-0.072-0.137-0.198-0.246-0.268-0.383
	c-0.533-1.05-0.592-2.105,0.123-3.086c1.016-1.393,1.845-2.891,2.605-4.431c0.168-0.758,0.619-1.106,1.406-0.972
	c0.029,0.005,0.062-0.006,0.092-0.007c0.305-0.014,0.537-0.164,0.706-0.403c0.106-0.152,0.212-0.317,0.267-0.492
	c0.201-0.654,0.416-1.307,0.557-1.975c0.097-0.455,0.105-0.941-0.238-1.336c-0.178-0.204-0.116-0.385-0.008-0.595
	c0.488-0.947,0.811-1.956,1.08-2.983c0.113-0.434,0.107-0.857,0.016-1.293c-0.121-0.575-0.461-0.95-1.006-1.127
	c-0.473-0.154-0.955-0.279-1.438-0.4c-0.147-0.037-0.313-0.041-0.464-0.018c-0.554,0.087-1.114,0.155-1.653,0.305
	c-0.346,0.096-0.619,0.135-0.955-0.062c-0.221-0.13-0.541-0.118-0.817-0.125c-1.563-0.041-3.112,0.078-4.655,0.348
	c-1.495,0.261-2.891,0.754-4.195,1.52c-0.158,0.093-0.334,0.196-0.432,0.342c-0.201,0.301-0.457,0.29-0.74,0.199
	C8.792,2.285,7.997,2.357,7.192,2.513C6.284,2.688,5.521,3.195,4.714,3.59C4.325,3.779,4.026,4.143,3.876,4.567
	C3.509,5.597,3.394,6.656,3.871,7.666c0.479,1.017,1.111,1.951,2.032,2.642c0.178,0.134,0.359,0.263,0.423,0.483
	c0.123,0.43,0.444,0.655,0.81,0.855c0.301,0.164,0.608,0.33,0.867,0.548c0.266,0.223,0.506,0.451,0.865,0.526
	c0.135,0.028,0.266,0.165,0.359,0.282c0.174,0.217,0.328,0.454,0.479,0.69c0.418,0.657,0.809,1.333,1.25,1.974
	c0.389,0.564,0.805,1.115,1.255,1.63c0.646,0.737,0.843,1.652,1.098,2.548c0.054,0.19-0.007,0.365-0.163,0.505
	c-0.467,0.416-0.942,0.822-1.5,1.114c-0.555,0.292-1.072,0.632-1.551,1.04c-0.354,0.302-0.75,0.543-1.184,0.734
	c-0.945,0.416-1.799,0.999-2.672,1.544c-0.328,0.205-0.474,0.477-0.447,0.856c0.016,0.217,0.008,0.437,0.029,0.654
	c0.036,0.348,0.168,0.664,0.383,0.94c0.14,0.18,0.316,0.311,0.562,0.259c0.256-0.053,0.332-0.255,0.363-0.484
	c0.002-0.02,0.006-0.041,0.01-0.061c-0.008-0.002-0.014-0.005-0.02-0.008c-0.066-0.063-0.133-0.127-0.199-0.19
	c0-0.015,0.002-0.03,0.002-0.045c-0.039-0.028-0.084-0.055-0.102-0.094c-0.018-0.039,0.012-0.099,0.021-0.149
	c0.025,0.038,0.066,0.073,0.076,0.115c0.01,0.041,0.006,0.084,0.004,0.128c0.008,0.006,0.017,0.012,0.023,0.018
	c0.066,0.064,0.133,0.129,0.197,0.194c-0.002,0.01-0.003,0.021-0.004,0.031c0.325,0.124,0.656,0.392,0.953-0.066
	c0.072-0.109,0.164,0.014,0.248,0.027c0.09,0.015,0.183,0.036,0.273,0.031c0.201-0.013,0.344-0.239,0.252-0.398
	c-0.171-0.298-0.354-0.588-0.523-0.886c-0.045-0.078-0.062-0.173-0.082-0.262c-0.005-0.02,0.027-0.054,0.05-0.071
	c0.017-0.013,0.06-0.021,0.067-0.011c0.083,0.091,0.16,0.187,0.24,0.279c0.144,0.162,0.285,0.327,0.437,0.479
	c0.036,0.037,0.136,0.061,0.169,0.037c0.067-0.048,0.15-0.131,0.152-0.202c0.006-0.152-0.029-0.307-0.061-0.458
	c-0.023-0.121-0.07-0.236-0.1-0.356c-0.006-0.023,0.014-0.059,0.031-0.081c0.008-0.01,0.049-0.009,0.059,0.002
	c0.062,0.069,0.117,0.145,0.18,0.214c0.187,0.21,0.396,0.308,0.646,0.101c0.119-0.099,0.172,0.013,0.212,0.074
	c0.137,0.208,0.251,0.432,0.386,0.642c0.215,0.337,0.311,0.753,0.651,1.009c-0.196,0.35-0.396,0.697-0.587,1.05
	c-0.184,0.341-0.142,0.581,0.143,0.834c0.629,0.56,1.254,1.125,1.893,1.672c0.568,0.487,1.159,0.951,1.83,1.293
	c0.326,0.166,0.639,0.119,0.76-0.089c0.096-0.164,0.006-0.405-0.264-0.637c-0.496-0.427-1.011-0.833-1.5-1.27
	c-0.488-0.436-0.976-0.877-1.426-1.351c-0.459-0.481-0.453-0.418-0.135-0.943c0.21-0.346,0.424-0.689,0.641-1.032
	c0.1-0.159,0.217-0.306,0.309-0.468c0.203-0.356-0.008-0.701-0.432-0.69c-0.215,0.006-0.43,0.06-0.643,0.098
	c-0.143,0.026-0.246-0.033-0.3-0.155c-0.305-0.684-0.603-1.37-0.903-2.054c-0.059-0.132-0.036-0.254,0.066-0.338
	c0.217-0.176,0.438-0.352,0.674-0.499c0.609-0.379,1.231-0.738,1.77-1.221c0.039-0.035,0.123-0.064,0.16-0.045
	c0.045,0.022,0.082,0.1,0.084,0.154c0.006,0.187,0.006,0.375-0.01,0.561c-0.053,0.59-0.143,1.178-0.166,1.768
	c-0.049,1.247-0.061,2.494,0.223,3.724c0.105,0.457,0.195,0.907,0.459,1.313c0.168,0.259,0.26,0.566,0.398,0.845
	c0.125,0.251,0.257,0.499,0.4,0.739c0.17,0.283,0.442,0.431,0.75,0.521c0.246,0.072,0.531-0.124,0.521-0.385
	c-0.008-0.214-0.068-0.426-0.106-0.638c-0.025-0.147,0.038-0.232,0.188-0.251c0.215-0.027,0.437-0.028,0.639-0.093
	c0.086-0.028,0.178-0.191,0.176-0.292c-0.002-0.1-0.094-0.239-0.186-0.288c-0.132-0.068-0.305-0.053-0.448-0.104
	c-0.171-0.062-0.337-0.148-0.493-0.24c-0.039-0.022-0.066-0.117-0.051-0.161c0.015-0.042,0.104-0.094,0.143-0.083
	c0.302,0.092,0.605,0.144,0.922,0.105c0.227-0.029,0.451-0.243,0.381-0.443c-0.104-0.291-0.146-0.499,0.205-0.627
	c0.068-0.024,0.141-0.146,0.141-0.221c0-0.11-0.035-0.256-0.113-0.32c-0.082-0.069-0.232-0.051-0.348-0.09
	c-0.232-0.078-0.463-0.163-0.688-0.259c-0.046-0.02-0.065-0.102-0.098-0.154c0.057-0.017,0.119-0.055,0.17-0.045
	c0.213,0.041,0.415,0.117,0.642,0.041c0.224-0.075,0.313-0.35,0.14-0.516c-0.09-0.084-0.203-0.141-0.303-0.214
	c-0.062-0.047-0.037-0.078,0.051-0.111c0.202-0.075,0.424-0.04,0.5,0.113c0.305,0.615,0.535,1.278,0.921,1.836
	c0.301,0.437,0.318,0.773,0.052,1.183c-0.049,0.077-0.096,0.166-0.109,0.254c-0.014,0.086,0,0.187,0.033,0.269
	c0.062,0.157,0.199,0.259,0.363,0.232c0.108-0.017,0.209-0.11,0.302-0.184c0.046-0.036,0.075-0.102,0.095-0.16
	c0.375-1.092,0.714-2.203,0.82-3.35c0.094-1.021,0.045-2.058,0.042-3.087c-0.001-0.436-0.019-0.873-0.171-1.294
	c-0.038-0.105-0.037-0.263,0.018-0.354c0.092-0.151,0.221-0.005,0.314,0.036c0.687,0.299,1.367,0.611,2.049,0.918
	c0.143,0.064,0.286,0.125,0.426,0.194c0.125,0.062,0.188,0.178,0.15,0.306c-0.068,0.237-0.123,0.493-0.254,0.694
	c-0.273,0.426-0.482,0.878-0.609,1.361c-0.092,0.352-0.3,0.525-0.626,0.609c-0.24,0.062-0.489,0.106-0.718,0.2
	c-0.508,0.207-0.588,0.688-0.178,1.025c0.363,0.298,0.756,0.549,1.217,0.677c0.149,0.041,0.295,0.095,0.439,0.153
	c0.119,0.048,0.165,0.2,0.1,0.312c-0.346,0.598-0.764,1.14-1.283,1.599c-0.328,0.29-0.68,0.555-0.986,0.864
	c-0.461,0.462-0.898,0.95-1.336,1.435c-0.121,0.133-0.094,0.373,0.027,0.52c0.145,0.173,0.426,0.229,0.587,0.089
	c0.187-0.163,0.374-0.334,0.521-0.533c0.408-0.561,0.919-1.013,1.441-1.461c0.377-0.323,0.74-0.677,1.047-1.065
	c0.385-0.489,0.711-1.024,1.053-1.546c0.178-0.272,0.09-0.544-0.223-0.69c-0.42-0.197-0.851-0.375-1.274-0.566
	c-0.054-0.024-0.095-0.077-0.142-0.117c0.037-0.034,0.069-0.09,0.113-0.102c0.555-0.152,0.826-0.528,0.859-1.087
	c0.012-0.196,0.088-0.355,0.192-0.516c0.122-0.188,0.11-0.196,0.265,0.007c0.281,0.369,0.553,0.375,0.799,0.004
	c0.139-0.207,0.252-0.431,0.381-0.645c0.086-0.142,0.223-0.186,0.295-0.088c0.045,0.062,0.074,0.172,0.051,0.24
	c-0.068,0.206-0.184,0.396-0.25,0.602c-0.035,0.112-0.016,0.245-0.008,0.368c0.007,0.103,0.218,0.191,0.301,0.126
	c0.096-0.075,0.197-0.151,0.27-0.247c0.131-0.173,0.23-0.373,0.367-0.541c0.086-0.105,0.214-0.088,0.334-0.012
	c0.146,0.093,0.191,0.223,0.203,0.39c0.01,0.146,0.115,0.229,0.254,0.154c0.32-0.172,0.531,0.025,0.748,0.202
	c0.138,0.112,0.167,0.244,0.061,0.405c-0.083,0.127-0.188,0.288-0.002,0.396c0.088,0.051,0.252,0.041,0.346-0.009
	c0.203-0.11,0.398-0.154,0.627-0.109c0.088,0.018,0.186,0.001,0.277-0.017C28.401,25.386,28.539,25.033,28.373,24.841z
	 M24.144,9.191c-0.088,0.31-0.303,0.536-0.639,0.625c-0.395,0.105-0.501,0.029-0.529-0.411c-0.045-0.722,0.116-1.417,0.311-2.103
	c0.082-0.296,0.462-0.407,0.778-0.286c0.157,0.061,0.271,0.157,0.284,0.331c0.018,0.186,0.02,0.373,0.035,0.729
	C24.327,8.344,24.263,8.775,24.144,9.191z M23.204,5.506c0.01-0.188,0.039-0.23,0.342-0.316c0.209-0.06,0.419-0.112,0.631-0.154
	c0.031-0.006,0.117,0.089,0.11,0.103C24.13,5.438,23.972,5.74,23.79,6.026c-0.039,0.062-0.162,0.076-0.25,0.102
	c-0.17,0.049-0.325-0.047-0.336-0.206C23.198,5.829,23.204,5.736,23.204,5.506z M24.798,4.005c-0.064,0.273-0.183,0.414-0.512,0.414
	c-0.299-0.001-0.598,0.138-0.896,0.216c-0.024-0.016-0.066-0.027-0.072-0.048c-0.012-0.05-0.027-0.135-0.002-0.152
	c0.479-0.341,0.965-0.675,1.451-1.008c0.021-0.016,0.076-0.032,0.078-0.027c0.031,0.051,0.08,0.112,0.072,0.16
	C24.889,3.71,24.833,3.855,24.798,4.005z M22.525,2.162c0.046-0.111,0.106-0.221,0.187-0.31c0.25-0.279,0.488-0.558,0.568-0.944
	c0.029-0.142,0.158-0.15,0.297-0.104c0.293,0.1,0.59,0.19,0.889,0.27c0.609,0.163,0.777,0.356,0.807,0.961
	c0.003,0.062,0,0.125,0,0.248c-0.002,0.031-0.004,0.125-0.012,0.218c-0.015,0.182-0.125,0.286-0.303,0.2
	c-0.242-0.116-0.436-0.036-0.613,0.076c-0.342,0.213-0.66,0.463-0.994,0.688c-0.074,0.05-0.189,0.076-0.232-0.042
	c-0.029-0.077-0.047-0.203-0.006-0.25c0.266-0.302,0.562-0.578,0.822-0.885c0.114-0.134,0.18-0.317,0.234-0.489
	c0.021-0.068-0.03-0.192-0.089-0.242c-0.056-0.047-0.192-0.071-0.245-0.035c-0.229,0.155-0.441,0.333-0.657,0.508
	c-0.144,0.116-0.276,0.247-0.425,0.356c-0.023,0.018-0.115-0.028-0.154-0.067C22.558,2.279,22.511,2.199,22.525,2.162z
	 M21.999,0.878c0.059-0.016,0.122-0.01,0.184-0.015c0.057,0.015,0.115,0.026,0.171,0.045c0.085,0.026,0.099,0.08,0.036,0.14
	c-0.086,0.081-0.168,0.177-0.271,0.225c-0.135,0.063-0.318-0.042-0.35-0.196C21.73,0.898,21.893,0.907,21.999,0.878z M9.644,4.409
	c0.957-0.918,2.079-1.576,3.307-2.057c0.988-0.388,2.014-0.633,3.072-0.736c0.771-0.075,1.545-0.157,2.316-0.236
	c0.002,0.017,0.004,0.033,0.006,0.049c0.342,0,0.686,0.019,1.027-0.004c0.566-0.038,1.028,0.184,1.449,0.53
	c1.066,0.878,1.492,2.032,1.452,3.385c-0.007,0.217-0.104,0.335-0.323,0.397c-0.238,0.068-0.49,0.101-0.719,0.194
	c-0.443,0.182-0.797,0.186-1.135-0.243c-0.254-0.321-0.662-0.448-1.078-0.5c-0.246-0.03-0.488-0.092-0.734-0.122
	c-0.693-0.086-1.307,0.042-1.703,0.687c-0.152,0.249-0.33,0.292-0.623,0.22c-0.605-0.147-1.17,0.031-1.672,0.383
	c-0.186,0.13-0.328,0.124-0.498-0.012c-0.541-0.432-1.207-0.463-1.852-0.549c-0.426-0.056-0.795,0.095-1.096,0.407
	c-0.107,0.112-0.217,0.224-0.328,0.333c-0.184,0.182-0.402,0.294-0.664,0.3C9.444,6.846,9.04,6.848,8.636,6.849
	C8.521,6.85,8.407,6.696,8.44,6.586C8.678,5.771,9.017,5.01,9.644,4.409z M19.952,7.296c-0.08,0.393-0.137,0.793-0.247,1.178
	c-0.096,0.333-0.362,0.507-0.708,0.507c-0.311,0-0.629,0-0.931-0.061c-0.593-0.119-0.974-0.571-1.044-1.17
	c-0.108-0.923,0.229-1.411,1.127-1.639c0.307-0.078,0.615-0.081,0.926-0.039c0.535,0.071,0.824,0.395,0.832,0.934
	c0.002,0.094,0.001,0.187,0.001,0.281C19.923,7.289,19.938,7.292,19.952,7.296z M14.407,8.849c0-0.436-0.004-0.873,0.002-1.309
	c0.006-0.367,0.275-0.724,0.632-0.828c0.147-0.042,0.306-0.062,0.46-0.067c0.317-0.011,0.557,0.148,0.627,0.45
	c0.285,1.21,0.596,2.418,0.562,3.678c-0.014,0.498-0.057,0.59-0.572,0.684c-1.422,0.26-1.504,0.131-1.655-1.205
	c-0.052-0.462-0.009-0.935-0.009-1.403H14.407z M12.642,6.703c0.719,0.099,1.094,0.569,1.006,1.292
	c-0.062,0.495-0.205,0.971-0.516,1.377c-0.23,0.3-0.548,0.401-0.908,0.306c-0.648-0.173-1.082-0.599-1.328-1.201
	c-0.332-0.818,0.299-1.748,1.188-1.789c0.062-0.003,0.124,0,0.187,0V6.7C12.394,6.7,12.521,6.686,12.642,6.703z M7.411,3.696
	c0.234-0.135,0.475-0.257,0.729-0.39c0.149,0.1,0.287,0.165,0.388,0.267c0.115,0.115,0.145,0.295,0.051,0.421
	C8.456,4.159,8.292,4.297,8.124,4.42C8.075,4.456,7.931,4.432,7.878,4.383c-0.176-0.165-0.336-0.351-0.49-0.537
	C7.364,3.819,7.382,3.713,7.411,3.696z M5.844,4.36c0.017-0.021,0.12-0.014,0.135,0.01C6.29,4.91,6.606,5.444,7.094,5.853
	c0.036,0.03,0.028,0.113,0.042,0.171C7.087,6.057,7.041,6.113,6.99,6.118C6.935,6.123,6.862,6.095,6.82,6.057
	c-0.462-0.43-0.818-0.932-1.026-1.531C5.778,4.479,5.81,4.402,5.844,4.36z M6.892,8.443C6.839,8.508,6.771,8.609,6.685,8.689
	C6.649,8.722,6.552,8.74,6.519,8.716C6.144,8.437,5.88,8.064,5.681,7.645c-0.01-0.018,0.011-0.057,0.027-0.076
	C5.719,7.556,5.76,7.551,5.771,7.561c0.311,0.296,0.603,0.617,1.059,0.691c0.025,0.005,0.059,0.032,0.068,0.057
	C6.909,8.333,6.897,8.369,6.892,8.443z M6.759,7.371C6.522,7.201,6.319,7.001,6.222,6.719C6.208,6.716,6.194,6.712,6.181,6.708
	C6.173,6.685,6.167,6.66,6.155,6.638C6.149,6.623,6.132,6.613,6.119,6.602c0.028,0.027,0.058,0.055,0.087,0.082
	C6.21,6.696,6.217,6.707,6.222,6.719c0.244,0.066,0.492,0.125,0.73,0.21c0.051,0.019,0.093,0.149,0.086,0.224
	C7.032,7.231,6.972,7.314,6.914,7.375C6.89,7.4,6.796,7.396,6.759,7.371z M8.622,11.723c-0.021,0.027-0.131,0.021-0.172-0.008
	c-0.399-0.29-0.806-0.572-1.182-0.89c-0.223-0.188-0.281-0.474-0.272-0.805c0.047-0.172,0.095-0.384,0.163-0.589
	C7.214,9.27,7.448,9.106,7.591,9.124c0.17,0.021,0.271,0.139,0.328,0.292c0.262,0.697,0.523,1.392,0.773,2.093
	C8.714,11.567,8.667,11.667,8.622,11.723z M12.54,15.804c-0.281-0.444-0.672-0.816-1-1.232c-0.191-0.244-0.394-0.492-0.525-0.77
	c-0.24-0.51-0.535-0.983-0.862-1.438c-0.591-0.818-0.994-1.722-1.258-2.692c-0.065-0.24-0.151-0.474-0.22-0.713
	c-0.07-0.245,0.002-0.351,0.25-0.376c0.094-0.01,0.188-0.012,0.268-0.018C9.38,8.539,9.507,8.601,9.569,8.771
	c0.012,0.029,0.028,0.056,0.04,0.085c0.551,1.28,1.808,1.731,3.187,1.583c0.326-0.036,0.569-0.233,0.82-0.418
	c0.044-0.033,0.104-0.042,0.156-0.063c0.01,0.059,0.033,0.119,0.025,0.175c-0.051,0.369-0.117,0.736-0.162,1.105
	c-0.027,0.22,0.018,0.43,0.137,0.627c0.076,0.125,0.178,0.283,0.154,0.405c-0.025,0.133-0.173,0.249-0.28,0.359
	c-0.239,0.246-0.487,0.483-0.729,0.726c-0.088,0.088-0.178,0.175-0.252,0.274c-0.172,0.225-0.049,0.601,0.223,0.698
	c0.279,0.1,0.547,0.061,0.814-0.059c0.627-0.279,1.264-0.533,1.881-0.828c0.27-0.129,0.506-0.122,0.797-0.099
	c0.842,0.069,1.666,0.192,2.479,0.417c0.246,0.068,0.469-0.029,0.572-0.205c0.137-0.231,0.078-0.601-0.15-0.76
	c-0.176-0.123-0.375-0.222-0.574-0.303c-0.462-0.187-0.932-0.353-1.395-0.535c-0.075-0.029-0.203-0.075-0.111-0.189
	c0.514-0.644,0.43-1.329,0.156-2.031c-0.021-0.057-0.049-0.113-0.064-0.173c-0.006-0.025,0-0.078,0.014-0.082
	c0.047-0.017,0.1-0.023,0.15-0.023c0.029,0,0.061,0.017,0.088,0.031c0.523,0.266,1.088,0.235,1.648,0.221
	c0.299-0.008,0.529-0.153,0.74-0.354c0.332-0.315,0.484-0.718,0.58-1.149c0.04-0.182,0.08-0.367,0.089-0.551
	c0.042-0.897-0.014-0.648,0.847-0.933c0.174-0.058,0.369-0.051,0.555-0.066c0.121-0.01,0.25,0.124,0.23,0.235
	c-0.176,0.947-0.355,1.894-0.535,2.84c-0.012,0.061-0.038,0.119-0.062,0.176c-0.59,1.339-1.14,2.696-1.957,3.923
	c-0.379,0.57-0.732,1.158-1.084,1.745c-0.323,0.538-0.708,1.024-1.154,1.462c-0.057,0.056-0.182,0.106-0.242,0.081
	c-0.059-0.025-0.086-0.147-0.109-0.231c-0.031-0.12-0.029-0.249-0.07-0.364c-0.029-0.082-0.105-0.209-0.16-0.209
	c-0.309,0.002-0.564-0.295-0.88-0.17c-0.229,0.09-0.347,0.018-0.44-0.184c-0.055-0.119-0.164-0.201-0.295-0.152
	c-0.075,0.029-0.16,0.12-0.178,0.197c-0.068,0.301-0.122,0.592-0.347,0.843c-0.108,0.122-0.08,0.357-0.146,0.529
	c-0.022,0.057-0.151,0.114-0.221,0.103c-0.119-0.019-0.264-0.062-0.336-0.147C13.56,16.788,12.931,16.422,12.54,15.804z
	 M15.616,24.783c-0.27,0.793-0.543,1.586-0.82,2.376c-0.014,0.038-0.094,0.085-0.127,0.076c-0.053-0.015-0.123-0.069-0.133-0.117
	c-0.115-0.607-0.221-1.217-0.305-1.683c0-0.275,0.002-0.399,0-0.523c-0.004-0.203,0.07-0.358,0.245-0.468
	c0.104-0.065,0.2-0.147,0.3-0.222c0.299-0.224,0.299-0.224,0.611-0.004C15.726,24.455,15.728,24.456,15.616,24.783z M14.62,21.167
	c0.168-0.05,0.564,0.242,0.582,0.391c0.025,0.214,0.023,0.432,0.033,0.647c-0.009,0-0.02,0.001-0.027,0.001
	c0,0.155-0.006,0.311,0,0.466c0.02,0.465-0.339,0.623-0.66,0.807c-0.02,0.011-0.123-0.058-0.121-0.089
	c0.008-0.464,0.022-0.928,0.051-1.392c0.01-0.152,0.058-0.304,0.1-0.452C14.614,21.417,14.392,21.234,14.62,21.167z M16.408,27.354
	c0.013,0.009,0.021,0.048,0.012,0.06c-0.017,0.022-0.046,0.047-0.071,0.048c-0.164,0.009-0.316-0.088-0.34-0.212
	c0.037-0.029,0.092-0.089,0.111-0.079C16.222,27.222,16.315,27.288,16.408,27.354z M16.192,21.573l0.051,0.005l-0.031,0.048
	L16.192,21.573z M16.95,23.103c-0.076,0.038-0.168,0.047-0.221,0.061c-0.096-0.009-0.156-0.012-0.215-0.023
	c-0.027-0.005-0.059-0.022-0.077-0.043c-0.007-0.008,0.011-0.059,0.024-0.062c0.167-0.047,0.334-0.091,0.502-0.129
	c0.018-0.004,0.064,0.045,0.061,0.058C17.009,23.014,16.989,23.083,16.95,23.103z M17.093,20.331
	c-0.291,0.182-0.596,0.338-0.895,0.505c-0.312-0.137-0.625-0.274-0.939-0.41c-0.228-0.099-0.449-0.239-0.688-0.28
	c-0.307-0.054-0.412-0.241-0.473-0.497c-0.029-0.121-0.049-0.245-0.074-0.367c-0.037-0.118-0.088-0.234-0.107-0.355
	c-0.018-0.1,0.023-0.171,0.154-0.145c0.801,0.16,1.613,0.073,2.422,0.101c0.255,0.009,0.492-0.072,0.701-0.224
	c0.201-0.146,0.4-0.297,0.602-0.443c0.094-0.068,0.18-0.029,0.208,0.066c0.054,0.178,0.113,0.361,0.123,0.545
	c0.022,0.415-0.048,0.803-0.431,1.063C17.489,20.029,17.304,20.2,17.093,20.331z M17.513,21.824
	c-0.074-0.026-0.123-0.132-0.178-0.206c-0.084-0.113-0.092-0.248,0.01-0.335c0.188-0.161,0.393-0.303,0.6-0.439
	c0.122-0.08,0.289-0.213,0.388-0.18c0.158,0.055,0.315,0.205,0.399,0.355c0.102,0.184,0.133,0.409,0.184,0.619
	c0.021,0.089,0.023,0.185,0.025,0.277c0.003,0.187,0,0.373,0,0.559c0.01,0,0.021,0,0.031,0.001
	c-0.016,0.184-0.028,0.369-0.047,0.553c-0.002,0.028-0.029,0.077-0.045,0.076c-0.053-0.002-0.125-0.003-0.154-0.037
	c-0.123-0.139-0.238-0.286-0.348-0.436C18.142,22.306,17.925,21.967,17.513,21.824z M19.198,26.363
	c-0.008,0.05-0.082,0.133-0.113,0.128c-0.072-0.012-0.17-0.052-0.201-0.11c-0.331-0.627-0.642-1.267-0.979-1.891
	c-0.195-0.362-0.062-0.726-0.057-1.089c0.001-0.031,0.062-0.062,0.096-0.091c0.055,0.045,0.11,0.077,0.146,0.124
	c0.15,0.196,0.287,0.402,0.443,0.593c0.196,0.24,0.405,0.465,0.746,0.505c0.062,0.007,0.162,0.13,0.154,0.189
	C19.368,25.27,19.285,25.817,19.198,26.363z M15.22,15.082c0.18,0.042,0.372,0.024,0.608,0.035c0.2-0.012,0.456,0.005,0.694-0.052
	c0.203-0.048,0.393-0.169,0.576-0.28c0.121-0.074,0.117-0.329-0.008-0.409c-0.125-0.082-0.271-0.177-0.412-0.182
	c-0.466-0.015-0.934-0.004-1.4,0.025c-0.143,0.009-0.291,0.093-0.419,0.171c-0.173,0.106-0.193,0.36-0.04,0.477
	C14.938,14.958,15.077,15.048,15.22,15.082z M12.755,4.779c0.4-0.049,0.797-0.127,1.197-0.165c0.773-0.074,1.551-0.123,2.326-0.195
	c0.146-0.014,0.294-0.08,0.426-0.15c0.033-0.018,0.025-0.154,0-0.222c-0.016-0.045-0.1-0.095-0.15-0.093
	c-0.771,0.036-1.543,0.081-2.314,0.124c-0.121,0.166-0.316,0.138-0.486,0.156c-0.373,0.04-0.74,0.095-1.068,0.293
	c-0.041,0.025-0.077,0.112-0.066,0.157C12.63,4.727,12.712,4.785,12.755,4.779z M14.548,3.937c0.309-0.031,0.621-0.037,0.932-0.043
	c0.349-0.007,0.662-0.127,0.959-0.295c0.035-0.021,0.039-0.106,0.045-0.163c0.002-0.018-0.034-0.046-0.059-0.06
	c-0.053-0.029-0.111-0.074-0.166-0.071c-0.773,0.029-1.547,0.06-2.32,0.105c-0.15,0.009-0.307,0.062-0.442,0.131
	c-0.065,0.032-0.106,0.142-0.124,0.224c-0.008,0.044,0.047,0.114,0.09,0.155c0.232,0.219,0.518,0.16,0.793,0.139l-0.027,0.021
	c0.004,0,0.008,0,0.012,0c0.002-0.003,0.004-0.006,0.008-0.009C14.347,4.019,14.444,3.946,14.548,3.937z M18.513,6.977
	c-0.135-0.034-0.342,0.112-0.398,0.313c-0.049,0.172-0.074,0.359-0.062,0.536c0.017,0.226,0.245,0.387,0.454,0.361
	c0.174-0.021,0.32-0.168,0.361-0.366c0.012-0.06,0.016-0.122,0.027-0.21c-0.008-0.063-0.01-0.157-0.034-0.244
	C18.809,7.184,18.712,7.028,18.513,6.977z M11.831,7.977c-0.016,0.205-0.015,0.423,0.043,0.617c0.045,0.15,0.23,0.206,0.383,0.161
	c0.104-0.03,0.203-0.12,0.27-0.209c0.049-0.065,0.042-0.172,0.06-0.258c-0.011-0.095-0.015-0.187-0.032-0.275
	c-0.033-0.166-0.156-0.259-0.303-0.307C12.106,7.658,11.845,7.816,11.831,7.977z"></path>
  </g>
  <g id="work" data-iconmelon="Brainy Icons:4677a05fa1fa570aafa7c8137c4b9263">
    <path fill-rule="evenodd" clip-rule="evenodd" d="M28.753,13.732c0-0.236,0.002-0.478-0.043-0.708
	c-0.17-0.868-0.168-1.746-0.17-2.624c-0.002-1.183,0.018-2.365-0.004-3.548c-0.01-0.571-0.057-1.148-0.156-1.71
	c-0.078-0.451-0.338-0.802-0.848-0.886c-0.332-0.055-0.66-0.135-0.988-0.206c-0.294-0.062-0.568-0.119-0.889-0.038
	c-0.412,0.105-0.576-0.037-0.771-0.461c-0.057-0.122-0.117-0.245-0.155-0.373c-0.173-0.581-0.579-0.794-1.156-0.759
	c-0.202,0.012-0.405,0.017-0.607,0.017c-0.168-0.001-0.342,0.01-0.504-0.024c-1.413-0.297-1.467-0.305-2.581-0.219
	c-0.066,0.005-0.146,0.017-0.199-0.012c-0.08-0.042-0.197-0.11-0.207-0.179c-0.033-0.266-0.025-0.538-0.043-0.807
	c-0.027-0.428-0.186-0.782-0.578-1.004C18.771,0.145,18.707,0.064,18.635,0h-0.202c-0.088,0.189-0.268,0.188-0.43,0.19
	c-0.608,0.009-1.217,0.001-1.824,0.008c-0.371,0.004-0.746,0-1.113,0.045c-0.389,0.048-0.67,0.372-0.705,0.75
	c-0.014,0.168-0.017,0.338-0.006,0.506c0.026,0.432-0.012,0.575-0.564,0.59c-0.471,0.013-0.938,0.093-1.409,0.12
	c-0.54,0.031-1.083,0.013-1.62,0.057c-0.604,0.049-1.111,0.279-1.349,0.9c-0.06,0.157-0.144,0.305-0.216,0.458
	C9.067,3.899,8.846,4.01,8.548,4.025C7.371,4.08,6.194,4.147,5.019,4.209C4.884,4.217,4.741,4.203,4.616,4.243
	C4.22,4.37,3.87,4.557,3.79,5.028c-0.038,0.232-0.125,0.46-0.141,0.692C3.577,6.865,3.419,8.003,3.44,9.156
	c0.021,1.284-0.023,2.568-0.023,3.852c0.004,4.494,0.014,8.988,0.031,13.482c0.002,0.606,0.055,1.213,0.105,1.817
	c0.025,0.309,0.041,0.608-0.1,0.892c-0.287,0.574-0.209,1.187-0.191,1.791c0.006,0.214,0.158,0.382,0.374,0.418
	c1.097,0.18,2.187,0.42,3.306,0.421c3.953,0.002,7.906,0.012,11.86,0.008c1.486-0.001,2.977,0.023,4.458-0.069
	c0.787-0.05,1.553-0.042,2.303,0.155c0.555,0.146,1.057,0.074,1.583-0.091c0.765-0.24,1.209-0.74,1.243-1.534
	c0.022-0.498,0.248-0.991,0.055-1.496c0.238-0.588,0.09-1.199,0.107-1.801c0.027-0.944-0.016-1.896,0.072-2.835
	c0.102-1.08,0.098-2.157,0.105-3.237c0.006-0.675,0.028-1.352,0.029-2.027C28.761,17.178,28.758,15.455,28.753,13.732z
	 M18.245,4.666c0.438-0.006,0.875-0.002,1.188-0.002c1.371,0.067,2.613,0.127,3.857,0.188c0.18,0.009,0.32,0.086,0.408,0.25
	c0.109,0.209,0.226,0.414,0.329,0.625c0.093,0.19,0.026,0.326-0.167,0.381c-0.56,0.162-1.137,0.178-1.703,0.111
	c-0.475-0.058-0.934-0.024-1.404,0.007c-0.873,0.056-1.75,0.041-2.625,0.048c-0.145,0.001-0.262-0.082-0.267-0.24
	c-0.01-0.336-0.015-0.672-0.001-1.008C17.87,4.775,17.989,4.67,18.245,4.666z M15.696,1.543c0.023-0.059,0.174-0.1,0.264-0.093
	c0.604,0.039,1.207,0.09,1.809,0.145c0.161,0.015,0.25,0.19,0.225,0.387c-0.023,0.166-0.137,0.231-0.275,0.236
	c-0.303,0.011-0.605,0.003-0.908,0.003v0.022c-0.304,0-0.606,0.006-0.91-0.002c-0.139-0.005-0.275-0.075-0.283-0.226
	C15.61,1.856,15.637,1.688,15.696,1.543z M15.657,5.805c0.033-0.038,0.12-0.064,0.166-0.049c0.049,0.017,0.1,0.085,0.113,0.14
	c0.057,0.241-0.078,0.399-0.348,0.358c-0.02-0.052-0.079-0.131-0.068-0.197C15.537,5.967,15.597,5.877,15.657,5.805z M13.062,5.809
	c0.016,0.026,0.039,0.05,0.049,0.079c0.01,0.028,0.01,0.062,0.015,0.093C13.12,6.012,13.12,6.044,13.11,6.072
	c-0.01,0.028-0.033,0.051-0.049,0.076c-0.033-0.034-0.098-0.073-0.092-0.099C12.985,5.966,13.028,5.888,13.062,5.809z M27.14,12.995
	c-0.043,0.908-0.221,1.809-0.211,2.724c0.008,0.608-0.025,1.217,0.152,1.812c0.037,0.127,0.043,0.267,0.043,0.401
	c-0.005,1.622,0.06,3.248-0.039,4.865c-0.096,1.588-0.1,3.173-0.088,4.761c0.003,0.572,0.08,1.144,0.115,1.715
	c0.013,0.195-0.102,0.316-0.293,0.34c-0.1,0.013-0.203,0.029-0.303,0.025c-1.355-0.053-2.697,0.142-4.045,0.223
	c-1.076,0.064-2.148,0.201-3.223,0.298c-0.303,0.027-0.608,0.033-0.912,0.037c-1.792,0.024-3.584,0.03-5.375,0.071
	c-0.775,0.018-1.549,0.109-2.322,0.158c-0.677,0.042-1.351,0.047-2.012-0.15c-0.283-0.084-0.311-0.091-0.217-0.412
	c0.066-0.224,0.058-0.401-0.133-0.536c-0.182-0.129-0.397-0.125-0.574-0.013c-0.195,0.125-0.357,0.299-0.534,0.451
	c-0.101,0.087-0.188,0.217-0.303,0.249c-0.107,0.031-0.261-0.017-0.362-0.08C6.452,29.9,6.424,29.738,6.457,29.67
	c0.116-0.241,0.274-0.463,0.399-0.702c0.076-0.148,0.137-0.308,0.18-0.469c0.047-0.169-0.105-0.42-0.285-0.491
	c-0.176-0.069-0.338-0.018-0.459,0.113c-0.16,0.173-0.299,0.368-0.451,0.548c-0.242,0.284-0.316,0.319-0.366,0.19
	c-0.071-0.182,0.026-0.318,0.106-0.467c0.307-0.563,0.621-1.123,0.9-1.7c0.113-0.235,0.17-0.508,0.203-0.77
	c0.016-0.108-0.077-0.25-0.158-0.345c-0.074-0.086-0.365-0.019-0.461,0.099c-0.127,0.155-0.238,0.326-0.357,0.488
	c-0.04,0.054-0.082,0.106-0.131,0.153c-0.015,0.013-0.064,0.008-0.082-0.007c-0.047-0.043-0.123-0.097-0.122-0.145
	c0.005-0.129,0.017-0.27,0.073-0.382c0.317-0.635,0.652-1.26,0.971-1.894c0.137-0.271,0.256-0.551,0.373-0.832
	c0.072-0.173,0.006-0.33-0.098-0.472c-0.135-0.183-0.365-0.24-0.527-0.104c-0.18,0.148-0.334,0.327-0.506,0.485
	c-0.041,0.037-0.132,0.075-0.16,0.055c-0.047-0.032-0.082-0.11-0.084-0.17c-0.018-0.533-0.158-1.068,0.012-1.6
	c-0.063-1.451,0.051-2.904-0.1-4.354c-0.066-0.638-0.064-1.283-0.07-1.925c-0.009-1.013-0.008-2.025-0.146-3.033
	c-0.025-0.195-0.016-0.41,0.038-0.599c0.329-1.16,0.274-2.335,0.188-3.518c-0.051-0.706-0.038-1.418-0.04-2.127
	C5.296,5.458,5.444,5.313,5.673,5.311c0.473-0.004,0.951-0.031,1.418,0.024c0.389,0.046,0.81-0.021,1.16,0.23
	c-0.09,0.355-0.18,0.71-0.271,1.065C7.955,6.728,7.915,6.822,7.896,6.92C7.856,7.118,7.97,7.334,8.161,7.419
	c0.406,0.182,0.836,0.243,1.281,0.238c0.913-0.011,1.826-0.012,2.738-0.009c0.607,0.001,1.215,0.018,1.822,0.027
	c0,0.018,0,0.036,0,0.054c0.947,0,1.895-0.015,2.84,0.004c0.844,0.017,1.686,0.079,2.528,0.111c0.371,0.014,0.749,0.044,1.114-0.004
	c1.279-0.167,2.564-0.128,3.848-0.129c0.342,0,0.659-0.082,0.988-0.168c0.623-0.163,0.682-0.585,0.682-1.17
	c0-0.099-0.059-0.199-0.056-0.298c0.009-0.254-0.335-0.463-0.094-0.743c0.298-0.004,0.597-0.021,0.894-0.004
	c0.074,0.004,0.188,0.109,0.205,0.186c0.076,0.326,0.16,0.659,0.178,0.993C27.233,8.668,27.24,10.833,27.14,12.995z M25.847,16.503
	c-0.227-0.053-0.463-0.091-0.695-0.092c-1.148-0.011-2.299-0.012-3.447-0.006c-0.27,0.001-0.555-0.014-0.805,0.067
	c-0.527,0.172-1.066,0.148-1.605,0.175c-0.268,0.014-0.537,0.04-0.805,0.066c-1.04,0.104-2.076,0.258-3.117,0.303
	c-1.249,0.052-2.501,0.012-3.752,0.012v0.008c-1.283,0-2.566-0.001-3.85,0.001c-0.102,0-0.212-0.004-0.299,0.037
	c-0.08,0.039-0.16,0.122-0.197,0.205c-0.061,0.143,0.025,0.269,0.137,0.343c0.328,0.217,0.707,0.193,1.079,0.211
	c0.269,0.013,0.337,0.091,0.374,0.369c0.021,0.167,0.012,0.341,0.057,0.5c0.049,0.168,0.184,0.286,0.363,0.311
	c0.189,0.026,0.35-0.079,0.414-0.232c0.09-0.211,0.121-0.448,0.176-0.674c0.041-0.174,0.175-0.259,0.377-0.238
	c0.146,0.015,0.25,0.077,0.273,0.238c0.032,0.231,0.053,0.467,0.111,0.691c0.049,0.18,0.272,0.283,0.497,0.273
	c0.184-0.008,0.329-0.088,0.396-0.262c0.061-0.157,0.094-0.324,0.146-0.484c0.082-0.256,0.156-0.308,0.434-0.317
	c0.102-0.004,0.203-0.003,0.305-0.002c0.801,0.007,0.652,0.037,0.698,0.65c0.009,0.133,0.022,0.273,0.077,0.391
	c0.035,0.078,0.14,0.147,0.227,0.171c0.142,0.039,0.264-0.033,0.329-0.166c0.044-0.089,0.083-0.188,0.091-0.287
	c0.016-0.166-0.002-0.333,0.004-0.5c0.006-0.183,0.131-0.327,0.3-0.348c0.101-0.013,0.202-0.016,0.304-0.016
	c0.408,0,0.484,0.16,0.49,0.478c0.004,0.234,0.016,0.474,0.066,0.702c0.035,0.172,0.185,0.287,0.363,0.306
	c0.186,0.02,0.324-0.094,0.41-0.245c0.064-0.116,0.109-0.249,0.134-0.38c0.03-0.165,0.028-0.335,0.046-0.503
	c0.037-0.333,0.078-0.373,0.439-0.421c0.133-0.018,0.27-0.026,0.403-0.04c0.165-0.017,0.36-0.099,0.485-0.037
	c0.215,0.104,0.105,0.36,0.133,0.553c0.009,0.067,0.019,0.134,0.035,0.199c0.051,0.199,0.244,0.355,0.44,0.355
	c0.19,0,0.323-0.104,0.382-0.274c0.065-0.189,0.102-0.388,0.146-0.584c0.062-0.265,0.134-0.339,0.399-0.354
	c0.235-0.013,0.473-0.016,0.708-0.012c0.184,0.003,0.278,0.127,0.228,0.344c-0.072,0.307-0.117,0.598,0.123,0.856
	c0.123,0.13,0.281,0.239,0.443,0.171c0.141-0.059,0.301-0.195,0.342-0.331c0.066-0.219,0.041-0.466,0.057-0.701
	c0.021-0.34,0.15-0.49,0.488-0.525c0.268-0.028,0.539-0.028,0.809-0.031c0.193-0.002,0.305,0.103,0.352,0.292
	c0.034,0.13,0.083,0.258,0.139,0.381c0.074,0.162,0.324,0.194,0.415,0.051c0.124-0.198,0.212-0.424,0.358-0.602
	c0.068-0.081,0.24-0.102,0.365-0.102c0.146,0,0.23,0.104,0.256,0.259c0.037,0.231,0.066,0.467,0.145,0.686
	c0.057,0.164,0.219,0.249,0.402,0.258c0.192,0.009,0.427-0.144,0.461-0.328c0.035-0.196,0.04-0.4,0.049-0.601
	c0.006-0.156,0.07-0.256,0.229-0.268c0.202-0.015,0.405-0.005,0.604-0.031c0.186-0.023,0.344-0.237,0.355-0.44
	C26.157,16.782,26.03,16.546,25.847,16.503z M21.88,21.293c-0.811,0.003-1.621,0.03-2.43,0.068
	c-0.438,0.021-0.871,0.117-1.307,0.125c-1.25,0.025-2.502,0.032-3.752,0.023c-0.297-0.002-0.597-0.083-0.889-0.152
	c-0.494-0.118-0.977-0.208-1.496-0.115c-0.496,0.089-1.01,0.079-1.482,0.11c-0.336-0.036-0.639-0.09-0.939-0.092
	c-0.158-0.001-0.328,0.064-0.471,0.142c-0.207,0.112-0.214,0.495-0.02,0.605c0.354,0.2,0.717,0.379,1.143,0.357
	c0.574-0.029,1.147-0.063,1.722-0.071c0.402-0.006,0.831-0.055,1.204,0.06c0.498,0.154,0.992,0.185,1.497,0.182
	c1.216-0.01,2.433-0.024,3.649-0.042c0.236-0.003,0.479,0.006,0.707-0.044c0.734-0.161,1.475-0.164,2.219-0.145
	c0.236,0.006,0.474-0.003,0.705-0.037c0.175-0.026,0.297-0.156,0.359-0.325C22.413,21.629,22.214,21.291,21.88,21.293z
	 M21.247,24.068c-0.088-0.046-0.184-0.102-0.278-0.105c-0.976-0.038-1.956-0.094-2.91,0.189c-0.359,0.106-0.702,0.201-1.087,0.104
	c-0.255-0.064-0.531-0.048-0.799-0.05c-1.008-0.01-2.02-0.146-3.023,0.092c-0.254,0.06-0.56,0.078-0.799-0.005
	c-1.022-0.356-2,0.033-2.992,0.132c-0.138,0.014-0.26,0.138-0.238,0.278c0.02,0.118,0.105,0.26,0.204,0.32
	c0.138,0.083,0.313,0.129,0.476,0.138c0.336,0.02,0.674,0.014,1.012,0.004c0.437-0.014,0.855-0.015,1.295,0.12
	c0.369,0.114,0.814,0.113,1.196,0.028c0.536-0.119,1.067-0.134,1.606-0.137c0.412-0.002,0.809-0.058,1.166-0.279
	c0.248-0.154,0.48-0.187,0.757-0.038c0.17,0.091,0.386,0.135,0.581,0.134c0.639-0.003,1.275-0.036,1.914-0.059
	c0,0.008,0,0.017,0.001,0.025c0.473-0.017,0.944-0.033,1.417-0.049c0.249-0.009,0.455-0.098,0.605-0.308
	C21.46,24.449,21.411,24.154,21.247,24.068z M20.825,26.391c-0.064-0.018-0.133-0.035-0.199-0.033
	c-0.471,0.018-0.957-0.026-1.41,0.077c-0.867,0.199-1.744,0.14-2.654,0.195c-0.199-0.013-0.434-0.038-0.67-0.043
	c-0.371-0.008-0.742-0.021-1.111,0.004c-0.157,0.01-0.32,0.086-0.459,0.17c-0.068,0.042-0.125,0.171-0.119,0.255
	c0.007,0.083,0.082,0.201,0.155,0.232c0.15,0.062,0.319,0.092,0.483,0.109c0.568,0.06,1.138,0.119,1.708,0.157
	c0.437,0.03,0.88,0.073,1.312,0.03c0.635-0.062,1.265-0.189,1.895-0.304c0.297-0.054,0.588-0.14,0.881-0.216
	c0.097-0.025,0.207-0.043,0.281-0.103c0.071-0.057,0.142-0.162,0.145-0.247C21.065,26.535,20.969,26.43,20.825,26.391z
	 M19.144,11.817c0.949,0.53,1.971-0.063,1.967-1.28c-0.021-0.085-0.037-0.329-0.137-0.53c-0.227-0.453-0.646-0.505-1.109-0.497
	c-0.904,0.016-1.592,0.936-1.061,1.96C18.876,11.608,19.007,11.74,19.144,11.817z M13.476,26.647
	c-0.124-0.041-0.258-0.068-0.389-0.07c-0.502-0.007-1.005-0.003-1.507-0.003v0.007c-0.503,0-1.005-0.005-1.507,0.003
	c-0.199,0.003-0.401,0.025-0.598,0.063c-0.24,0.046-0.393,0.259-0.395,0.512c-0.004,0.254,0.154,0.41,0.443,0.437
	c0.066,0.007,0.135,0.009,0.201,0.009c0.938,0.001,1.875,0.004,2.812,0c0.201-0.001,0.412,0,0.598-0.063
	c0.18-0.062,0.35-0.183,0.492-0.314C13.794,27.078,13.692,26.718,13.476,26.647z M11.151,12.058
	c0.338-0.216,0.684-0.429,0.995-0.681c0.147-0.119,0.243-0.314,0.333-0.49c0.096-0.192-0.16-0.512-0.369-0.482
	c-0.064,0.013-0.141,0.009-0.193,0.042c-0.369,0.229-0.74,0.457-1.095,0.708c-0.101,0.071-0.172,0.209-0.216,0.332
	c-0.08,0.215,0.031,0.39,0.176,0.539C10.892,12.136,11.033,12.133,11.151,12.058z M8.776,14.566c0.117,0.037,0.287,0.05,0.379-0.01
	c0.457-0.3,0.8-0.704,0.964-1.238c0.019-0.061,0.003-0.132,0.003-0.324c-0.004-0.112-0.285-0.273-0.52-0.176
	c-0.527,0.221-0.86,0.621-1.051,1.15c-0.021,0.06-0.023,0.132-0.02,0.198C8.542,14.343,8.599,14.512,8.776,14.566z M14.298,10.701
	c0.361-0.073,0.719-0.175,0.985-0.449c0.085-0.086,0.106-0.233,0.153-0.344c-0.057-0.116-0.078-0.224-0.144-0.289
	c-0.424-0.419-1.343-0.185-1.487,0.382c-0.03,0.121-0.014,0.267,0.021,0.39C13.876,10.569,14.134,10.734,14.298,10.701z
	 M22.263,13.577c0.057,0.027,0.129,0.024,0.195,0.032c0.248,0.029,0.459-0.156,0.461-0.403c-0.004-0.066,0.007-0.138-0.016-0.197
	c-0.16-0.431-0.464-0.723-0.902-0.854c-0.157-0.047-0.33-0.022-0.456,0.119c-0.116,0.13-0.155,0.401-0.063,0.56
	C21.667,13.157,21.925,13.412,22.263,13.577z M24.127,23.194c0.147,0.065,0.315,0.081,0.519,0.128
	c0.121-0.045,0.311-0.061,0.406-0.163c0.187-0.201,0.146-0.732-0.043-0.925c-0.172-0.174-0.367-0.081-0.555-0.014
	c-0.124,0.045-0.258,0.077-0.369,0.143c-0.156,0.091-0.207,0.253-0.201,0.427C23.892,22.965,23.967,23.123,24.127,23.194z
	 M17.093,10.343c0.254,0.077,0.512,0.149,0.774,0.178c0.108,0.012,0.265-0.068,0.335-0.157c0.111-0.139,0.08-0.329-0.025-0.465
	c-0.219-0.285-0.522-0.401-0.879-0.385c-0.033,0.003-0.066,0.008-0.1,0.011c-0.221,0.019-0.389,0.168-0.41,0.363
	C16.766,10.098,16.868,10.274,17.093,10.343z M24.483,24.594c-0.172,0.089-0.332,0.23-0.449,0.384
	c-0.064,0.085-0.074,0.272-0.023,0.369c0.072,0.135,0.223,0.227,0.332,0.332c0.268-0.07,0.502-0.103,0.711-0.197
	c0.098-0.045,0.191-0.203,0.202-0.317C25.3,24.68,24.894,24.38,24.483,24.594z M23.93,14.604c0.101,0.061,0.274,0.109,0.358,0.062
	c0.125-0.071,0.199-0.231,0.256-0.304c0.004-0.394-0.123-0.656-0.338-0.88c-0.122-0.127-0.408-0.162-0.553-0.057
	c-0.148,0.107-0.186,0.27-0.168,0.44C23.521,14.179,23.659,14.44,23.93,14.604z M19.772,14.123c0.334-0.167,0.416-0.647,0.166-0.939
	c-0.039-0.047-0.111-0.068-0.169-0.102c-0.063,0.013-0.134,0.013-0.188,0.041c-0.405,0.206-0.451,0.704-0.082,0.974
	C19.563,14.145,19.7,14.158,19.772,14.123z M19.845,16.233c0.102-0.078,0.234-0.134,0.296-0.235c0.175-0.29,0.081-0.688-0.209-0.886
	c-0.056-0.038-0.21-0.013-0.264,0.04c-0.266,0.258-0.308,0.631-0.106,0.904C19.614,16.128,19.722,16.159,19.845,16.233z"></path>
  </g>
  <g id="history" data-iconmelon="Brainy Icons:f85726abcababab0b7603d2090946171">
    <path fill-rule="evenodd" clip-rule="evenodd" d="M30.585,26.409c-0.078-0.133-0.206-0.261-0.342-0.328
	c-0.254-0.128-0.418-0.335-0.558-0.558c-0.355-0.562-0.695-1.135-1.025-1.714c-0.078-0.138-0.125-0.313-0.127-0.472
	c-0.012-0.666-0.028-1.33,0.109-1.99c0.051-0.249,0.126-0.412,0.389-0.509c0.539-0.2,0.984-0.546,1.373-0.971
	c0.165-0.181,0.256-0.371,0.289-0.615c0.117-0.858,0.303-1.714,0.645-2.502c0.361-0.837,0.377-1.683,0.318-2.545
	c-0.047-0.661-0.14-1.324-0.277-1.972c-0.206-0.976-0.425-1.951-0.721-2.901c-0.525-1.687-1.17-3.326-2.175-4.802
	c-0.89-1.306-1.886-2.497-3.314-3.256c-0.173-0.092-0.319-0.236-0.47-0.367c-0.184-0.158-0.394-0.235-0.633-0.266
	c-1.048-0.133-2.074-0.068-2.978,0.525c-0.386,0.252-0.661,0.201-0.979-0.043c-0.105-0.082-0.223-0.148-0.338-0.215
	c-1.027-0.592-2.105-0.995-3.322-0.873c-0.132,0.013-0.266,0.001-0.398,0.001C16.049,0.025,16.048,0.013,16.047,0
	c-0.961,0.082-1.921,0.174-2.883,0.242c-0.938,0.065-1.847,0.265-2.702,0.646c-3.466,1.541-5.89,4.057-7.079,7.69
	c-0.257,0.786-0.516,1.578-0.521,2.43c-0.009,1.562-0.001,3.124-0.104,4.689c-0.124,1.892-0.062,3.796-0.076,5.694
	c-0.006,0.666,0,1.33,0.192,1.98c0.095,0.316,0.149,0.649,0.185,0.979c0.066,0.609,0.082,0.676-0.452,0.963
	c-0.41,0.221-0.808,0.466-1.203,0.711c-0.226,0.139-0.442,0.296-0.655,0.455c-0.396,0.293-0.494,0.705-0.395,1.156
	c0.041,0.184,0.181,0.348,0.287,0.513c0.068,0.107,0.176,0.18,0.135,0.344c-0.104,0.416,0.133,0.69,0.422,0.94
	c0.452,0.393,0.893,0.799,1.352,1.182c0.175,0.146,0.377,0.271,0.587,0.357c0.208,0.086,0.283,0.214,0.349,0.426
	c0.162,0.524,0.49,0.696,0.978,0.554c0.415-0.12,0.824-0.265,1.233-0.403c1.733-0.591,3.492-1.076,5.312-1.326
	c1.086-0.149,2.163-0.357,3.247-0.52c0.986-0.148,1.973-0.309,2.965-0.395c1.192-0.104,2.392-0.169,3.589-0.188
	c2.364-0.039,4.73-0.025,7.095-0.058c0.74-0.009,1.456,0.104,2.169,0.269c0.193,0.045,0.387,0.112,0.581,0.121
	c0.451,0.021,0.852-0.335,0.863-0.787c0.007-0.259-0.011-0.547-0.116-0.776C31.164,27.379,30.873,26.894,30.585,26.409z
	 M20.579,4.086c0.761-0.556,1.618-0.894,2.546-1.094c0.534-0.116,0.986-0.027,1.427,0.244c0.862,0.531,1.573,1.223,2.152,2.054
	c0.651,0.935,1.157,1.946,1.568,3.002c0.629,1.615,1.077,3.284,1.364,4.993c0.094,0.556,0.029,1.137,0.127,1.691
	c0.199,1.132-0.129,2.173-0.453,3.223c-0.063,0.205-0.171,0.377-0.376,0.43c-1.026,0.262-2.009,0.73-3.067,0.654
	c-0.271,0-0.505,0.008-0.736-0.004c-0.143-0.007-0.241-0.083-0.258-0.243c-0.016-0.164-0.015-0.34-0.075-0.487
	s-0.172-0.283-0.288-0.396c-0.176-0.17-0.488-0.099-0.59,0.12c-0.111,0.24-0.201,0.492-0.324,0.727
	c-0.143,0.267-0.54,0.305-0.773,0.082c-0.039-0.037-0.072-0.125-0.055-0.168c0.062-0.154,0.161-0.293,0.22-0.447
	c0.058-0.152,0.108-0.316,0.115-0.478c0.008-0.21-0.094-0.384-0.296-0.479c-0.168-0.08-0.334-0.049-0.465,0.064
	c-0.275,0.24-0.539,0.494-0.802,0.748c-0.096,0.091-0.164,0.216-0.27,0.289c-0.06,0.041-0.171,0.015-0.257,0.001
	c-0.013-0.003-0.033-0.121-0.01-0.158c0.148-0.222,0.314-0.43,0.461-0.651c0.09-0.137,0.174-0.284,0.229-0.438
	c0.081-0.219-0.023-0.498-0.211-0.615c-0.188-0.119-0.387-0.107-0.565,0.008c-0.507,0.325-0.963,0.711-1.337,1.189
	c-0.061,0.077-0.122,0.177-0.204,0.209c-0.076,0.028-0.193,0.001-0.27-0.041c-0.081-0.043-0.158-0.122-0.078-0.242
	c0.131-0.193,0.258-0.389,0.373-0.59c0.1-0.173,0.191-0.352,0.269-0.536c0.107-0.254,0.058-0.517-0.104-0.643
	c-0.166-0.128-0.453-0.113-0.645,0.059c-0.197,0.177-0.381,0.372-0.566,0.563c-0.209,0.215-0.41,0.437-0.621,0.649
	c-0.146,0.147-0.301,0.229-0.532,0.146c-1.221-0.435-2.447-0.854-3.671-1.281c-0.093-0.033-0.184-0.082-0.261-0.144
	c-0.683-0.538-1.305-1.138-1.803-1.856c-0.245-0.352-0.238-0.755-0.17-1.152c0.021-0.118,0.125-0.23,0.212-0.326
	c1.256-1.379,2.511-2.758,3.774-4.128c0.948-1.03,1.987-1.966,3.089-2.832C19.105,5.227,19.827,4.635,20.579,4.086z M7.222,26.462
	c-0.03,0.792-0.059,1.585-0.091,2.378c-0.011,0.241-0.086,0.345-0.348,0.41c-0.842,0.212-1.629,0.555-2.397,0.947
	c-0.243,0.124-0.334,0.102-0.44-0.186c-0.223-0.598-0.719-0.939-1.183-1.307c-0.232-0.185-0.507-0.314-0.757-0.478
	c-0.17-0.11-0.185-0.378-0.013-0.51c0.288-0.222,0.584-0.436,0.891-0.63c0.448-0.282,0.882-0.637,1.374-0.784
	c0.457-0.137,0.985-0.029,1.481-0.05c0.396-0.018,0.792-0.062,1.187-0.103C7.197,26.124,7.296,26.206,7.222,26.462z M9.838,26.245
	c-0.175,0.613-0.154,1.239-0.166,1.866c-0.008,0.363-0.103,0.468-0.445,0.533c-0.065,0.012-0.131,0.02-0.196,0.027
	c-0.371,0.043-0.483-0.052-0.49-0.415c-0.001-0.065,0-0.133,0-0.253c0.052-0.503,0.104-1.061,0.169-1.617
	c0.038-0.32,0.194-0.451,0.531-0.463c0.131-0.005,0.264,0.008,0.392,0.035C9.776,25.99,9.878,26.107,9.838,26.245z M11.469,26.192
	c-0.211,0.603-0.203,1.228-0.207,1.854c-0.001,0.035-0.079,0.104-0.104,0.096c-0.058-0.015-0.141-0.062-0.148-0.108
	c-0.05-0.288-0.082-0.579-0.114-0.826c0.034-0.342,0.049-0.639,0.101-0.928c0.021-0.116,0.118-0.227,0.2-0.322
	c0.029-0.033,0.117-0.022,0.178-0.018c0.024,0.002,0.057,0.04,0.065,0.069C11.457,26.068,11.488,26.141,11.469,26.192z
	 M10.396,24.07c-1.271-0.013-2.525,0.094-3.77,0.345c-0.122,0.025-0.28,0.011-0.218-0.194c0.053-0.175,0.034-0.329-0.092-0.461
	c-0.092-0.096-0.214-0.167-0.29-0.272c-0.258-0.358-0.191-0.763,0.154-1.029c0.211-0.163,0.425-0.32,0.63-0.49
	c0.102-0.083,0.202-0.179,0.271-0.288c0.104-0.168,0.205-0.344,0.093-0.558c-0.104-0.198-0.271-0.284-0.482-0.301
	c-0.099-0.008-0.201,0.013-0.299-0.002c-0.255-0.039-0.521,0.293-0.729,0.057c-0.131-0.148-0.104-0.434-0.156-0.655
	C5.47,20.059,5.4,19.902,5.381,19.738c-0.01-0.078,0.046-0.222,0.104-0.24c0.781-0.26,1.302-0.916,2-1.302
	c0.137-0.075,0.242-0.227,0.334-0.362c0.16-0.24,0.008-0.668-0.272-0.75c-0.43-0.125-0.86-0.127-1.249,0.131
	c-0.249,0.165-0.476,0.363-0.724,0.533c-0.062,0.042-0.204,0.064-0.239,0.027c-0.059-0.06-0.077-0.174-0.086-0.269
	c-0.021-0.216,0.078-0.382,0.242-0.517c0.541-0.446,1.106-0.854,1.732-1.174c0.177-0.091,0.352-0.191,0.51-0.31
	c0.139-0.105,0.195-0.265,0.168-0.443c-0.03-0.196-0.191-0.36-0.393-0.402c-0.412-0.088-0.797-0.008-1.15,0.208
	c-0.283,0.173-0.552,0.371-0.833,0.548c-0.04,0.024-0.152,0.013-0.167-0.016c-0.041-0.08-0.09-0.194-0.061-0.264
	c0.049-0.114,0.137-0.233,0.241-0.299c0.423-0.265,0.856-0.511,1.286-0.761c0.229-0.133,0.479-0.238,0.689-0.396
	c0.334-0.251,0.253-0.718-0.124-0.887c-0.357-0.16-0.712-0.139-1.069-0.019c-0.252,0.084-0.497,0.188-0.75,0.267
	c-0.045,0.015-0.13-0.029-0.166-0.071c-0.037-0.043-0.059-0.123-0.047-0.179c0.047-0.237,0.167-0.433,0.383-0.557
	c0.404-0.232,0.806-0.469,1.213-0.695c0.232-0.129,0.481-0.229,0.709-0.367c0.139-0.085,0.266-0.202,0.37-0.328
	c0.22-0.267,0.097-0.693-0.219-0.839C7.59,9.903,7.366,9.878,7.137,9.966c-0.218,0.084-0.432,0.177-0.646,0.267
	c-0.241,0.102-0.482,0.204-0.725,0.307C5.539,10.276,5.669,9.968,5.659,9.68C5.653,9.514,5.664,9.342,5.703,9.183
	C6.068,7.726,6.527,6.3,7.337,5.021C7.751,4.366,8.312,3.845,9.022,3.5c0.33-0.158,0.665-0.309,0.979-0.496
	c0.959-0.573,2.007-0.904,3.095-1.069c0.955-0.146,1.928-0.118,2.89,0.001c0.296,0.036,0.6,0.074,0.882,0.166
	c0.559,0.183,1.124,0.162,1.68,0.066c0.344-0.06,0.575,0.067,0.819,0.244c0.116,0.084,0.148,0.249,0.056,0.344
	c-0.186,0.188-0.37,0.381-0.574,0.55c-0.872,0.721-1.78,1.402-2.621,2.157c-1.265,1.135-2.454,2.35-3.538,3.663
	c-0.528,0.642-1.101,1.249-1.648,1.876c-0.197,0.225-0.36,0.483-0.574,0.69c-0.739,0.718-0.812,1.634-0.814,2.579
	c-0.001,0.43,0.144,0.803,0.479,1.054c0.328,0.246,0.58,0.543,0.788,0.886c0.405,0.668,0.972,1.182,1.586,1.645
	c0.938,0.704,1.963,1.248,3.061,1.664c1.97,0.745,4.009,1.225,6.087,1.506c1.35,0.182,2.715,0.265,4.084,0.212
	c1.057-0.041,1.011-0.123,0.971,0.921c-0.016,0.42,0.114,0.86-0.126,1.26c-0.395,0.014-0.788,0.037-1.183,0.041
	c-0.8,0.006-1.6,0.002-2.398,0.002v-0.025c-1,0-1.999-0.014-2.998,0.004c-0.627,0.013-1.256,0.017-1.882,0.025
	c-0.819,0.01-1.627,0.293-2.464,0.203c-0.705,0.271-1.445,0.183-2.174,0.218c-0.432,0.021-0.86,0.085-1.291,0.11
	C11.593,24.032,10.994,24.077,10.396,24.07z M28.219,27.236c-0.466,0.008-0.933,0.008-1.399,0.008
	c-0.533,0.001-1.065,0.001-1.599,0.001c0-0.001,0-0.001,0-0.001c-0.9,0-1.8,0.001-2.699-0.001c-0.49-0.002-0.48-0.008-0.656-0.496
	c-0.065-0.182-0.164-0.364-0.292-0.508c-0.234-0.263-0.712-0.146-0.811,0.194c-0.055,0.188-0.053,0.394-0.084,0.59
	c-0.024,0.151-0.134,0.232-0.274,0.237c-0.299,0.012-0.599,0.015-0.896,0c-0.145-0.008-0.229-0.117-0.238-0.267
	c-0.014-0.198,0.005-0.404-0.043-0.594c-0.039-0.152-0.137-0.302-0.242-0.423c-0.179-0.206-0.553-0.144-0.687,0.089
	c-0.153,0.268-0.19,0.562-0.233,0.859c-0.059,0.41-0.148,0.474-0.594,0.511c-0.033,0.003-0.066,0.003-0.1,0.005
	c-0.34,0.018-0.411-0.037-0.465-0.355c-0.028-0.162-0.045-0.327-0.087-0.486c-0.04-0.15-0.264-0.314-0.379-0.267
	c-0.113,0.049-0.237,0.134-0.296,0.237c-0.179,0.312-0.023,0.818-0.378,0.981c-0.377,0.175-0.837,0.167-1.262,0.235
	c-0.112,0.019-0.245-0.115-0.248-0.255c-0.007-0.266,0.025-0.536-0.014-0.797c-0.028-0.186-0.124-0.375-0.23-0.534
	c-0.122-0.182-0.519-0.163-0.613,0.029c-0.115,0.235-0.211,0.487-0.267,0.742c-0.049,0.225-0.027,0.465-0.044,0.697
	c-0.021,0.279-0.167,0.402-0.462,0.387c-0.141-0.009-0.282-0.067-0.269-0.228c0.052-0.596,0.116-1.19,0.196-1.783
	c0.01-0.071,0.125-0.172,0.203-0.186c0.426-0.071,0.854-0.145,1.283-0.171c1.596-0.095,3.201-0.093,4.785-0.274
	c2.229-0.255,4.458-0.091,6.686-0.153c0.552-0.015,1.143,0.167,1.631-0.271c0.016-0.015,0.162,0.068,0.202,0.135
	c0.258,0.428,0.499,0.865,0.753,1.295c0.101,0.172,0.22,0.333,0.326,0.502C28.531,27.092,28.442,27.232,28.219,27.236z
	 M14.857,11.134c-0.516,0.157-0.963,0.448-1.312,0.865c-0.173,0.207-0.298,0.452-0.255,0.733c0.064,0.424,0.13,0.852,0.233,1.268
	c0.1,0.398,0.463,0.658,0.879,0.688c1.112,0.08,1.896-0.671,1.938-1.816c-0.075-0.354-0.15-0.708-0.227-1.062
	C15.998,11.268,15.391,10.972,14.857,11.134z M15.027,12.89c-0.027,0.049-0.09,0.099-0.143,0.105
	c-0.045,0.005-0.112-0.043-0.139-0.087c-0.031-0.051-0.036-0.122-0.038-0.185c-0.003-0.165,0.116-0.298,0.212-0.235
	c0.068,0.043,0.109,0.131,0.146,0.179C15.051,12.767,15.058,12.839,15.027,12.89z M20.796,6.386c0.36-0.169,0.712-0.354,1.06-0.548
	c0.202-0.112,0.383-0.265,0.586-0.377c0.197-0.11,0.502-0.054,0.643,0.115c0.127,0.151,0.232,0.323,0.347,0.485
	c0.153,0.217,0.299,0.44,0.464,0.647c0.247,0.311,0.582,0.423,0.973,0.4c0.326-0.019,0.539-0.32,0.432-0.634
	c-0.032-0.093-0.065-0.191-0.123-0.269c-0.379-0.504-0.759-1.009-1.151-1.502c-0.29-0.364-0.677-0.527-1.166-0.475
	c-0.504-0.05-0.95,0.075-1.316,0.499c-0.236,0.273-0.552,0.479-0.826,0.718c-0.125,0.108-0.246,0.222-0.356,0.344
	c-0.105,0.115-0.105,0.342-0.004,0.463C20.471,6.392,20.631,6.463,20.796,6.386z M4.349,26.738
	c-0.421,0.356-0.688,0.809-0.648,1.376c0.038,0.556,0.359,0.881,0.903,0.769c0.161-0.034,0.326-0.057,0.48-0.111
	c0.358-0.124,0.579-0.453,0.581-0.979c-0.049-0.18-0.102-0.511-0.229-0.809C5.264,26.579,4.68,26.457,4.349,26.738z"></path>
  </g>
  <g id="user" data-iconmelon="80 icons pack:cdfc0a94ed2dd5a94f21679c483e5602">
    <g>
      <g>
        <path d="M22.463,14.812c1.461-1.575,2.361-3.676,2.361-5.988C24.824,3.958,20.866,0,16,0S7.176,3.958,7.176,8.824
			c0,2.312,0.9,4.413,2.361,5.988c-3.711,3.205-6.377,9.093-6.888,16.125c-0.021,0.274,0.075,0.545,0.263,0.746
			C3.099,31.885,3.361,32,3.637,32h24.727c0.275,0,0.538-0.115,0.726-0.316c0.187-0.201,0.282-0.472,0.262-0.746
			C28.84,23.905,26.174,18.018,22.463,14.812 M16,1.979c3.774,0,6.846,3.071,6.846,6.846S19.774,15.67,16,15.67
			s-6.846-3.071-6.846-6.846S12.226,1.979,16,1.979 M4.719,30.021c0.66-6.2,3.074-11.292,6.306-13.914
			c1.418,0.972,3.13,1.543,4.976,1.543c1.845,0,3.557-0.571,4.975-1.543c3.232,2.622,5.646,7.714,6.307,13.914H4.719z"></path>
      </g>
    </g>
  </g>
  <g id="smartphone" data-iconmelon="80 icons pack:2f8773ca2978ca17e745bd76b2fedf1c">
    <g>
      <g>
        <path d="M22.65,0H9.35C8.518,0,7.844,0.674,7.844,1.506v28.988C7.844,31.326,8.518,32,9.35,32H22.65
			c0.833,0,1.506-0.674,1.506-1.506V1.506C24.156,0.674,23.483,0,22.65,0 M14.745,1.506h2.51c0.174,0,0.313,0.141,0.313,0.314
			s-0.14,0.313-0.313,0.313h-2.51c-0.173,0-0.313-0.14-0.313-0.313S14.572,1.506,14.745,1.506 M16,30.933
			c-0.763,0-1.38-0.617-1.38-1.38c0-0.762,0.617-1.38,1.38-1.38c0.764,0,1.38,0.618,1.38,1.38C17.38,30.316,16.764,30.933,16,30.933
			 M22.776,26.353c0,0.416-0.337,0.753-0.753,0.753H9.977c-0.415,0-0.753-0.337-0.753-0.753V4.141c0-0.416,0.338-0.753,0.753-0.753
			h12.047c0.416,0,0.753,0.337,0.753,0.753V26.353z"></path>
      </g>
    </g>
  </g>
  <g id="equalizer" data-iconmelon="80 icons pack:6b0f384e0c10efff8c1ffd6281324303">
    <g>
      <g>
        <path d="M19.928,9.761h-2.244c-0.47,0-0.852-0.272-0.852-0.607s0.382-0.607,0.852-0.607h2.244c0.47,0,0.852,0.272,0.852,0.607
			S20.397,9.761,19.928,9.761z"></path>
      </g>
      <g>
        <path d="M14.316,9.761h-2.244c-0.47,0-0.852-0.272-0.852-0.607s0.382-0.607,0.852-0.607h2.244c0.471,0,0.852,0.272,0.852,0.607
			S14.787,9.761,14.316,9.761z"></path>
      </g>
      <g>
        <path d="M25.538,12.5h-2.244c-0.47,0-0.851-0.272-0.851-0.607s0.381-0.607,0.851-0.607h2.244c0.47,0,0.852,0.272,0.852,0.607
			S26.008,12.5,25.538,12.5z"></path>
      </g>
      <g>
        <path d="M19.928,12.5h-2.244c-0.47,0-0.852-0.272-0.852-0.607s0.382-0.607,0.852-0.607h2.244c0.47,0,0.852,0.272,0.852,0.607
			S20.397,12.5,19.928,12.5z"></path>
      </g>
      <g>
        <path d="M14.316,12.5h-2.244c-0.47,0-0.852-0.272-0.852-0.607s0.382-0.607,0.852-0.607h2.244c0.471,0,0.852,0.272,0.852,0.607
			S14.787,12.5,14.316,12.5z"></path>
      </g>
      <g>
        <path d="M25.538,15.238h-2.244c-0.47,0-0.851-0.272-0.851-0.607s0.381-0.607,0.851-0.607h2.244c0.47,0,0.852,0.272,0.852,0.607
			S26.008,15.238,25.538,15.238z"></path>
      </g>
      <g>
        <path d="M19.928,15.238h-2.244c-0.47,0-0.852-0.272-0.852-0.607s0.382-0.607,0.852-0.607h2.244c0.47,0,0.852,0.272,0.852,0.607
			S20.397,15.238,19.928,15.238z"></path>
      </g>
      <g>
        <path d="M14.316,15.238h-2.244c-0.47,0-0.852-0.272-0.852-0.607s0.382-0.607,0.852-0.607h2.244c0.471,0,0.852,0.272,0.852,0.607
			S14.787,15.238,14.316,15.238z"></path>
      </g>
      <g>
        <path d="M8.706,15.238H6.462c-0.47,0-0.852-0.272-0.852-0.607s0.382-0.607,0.852-0.607h2.244c0.471,0,0.852,0.272,0.852,0.607
			S9.177,15.238,8.706,15.238z"></path>
      </g>
      <g>
        <path d="M3.096,15.238H0.852C0.381,15.238,0,14.966,0,14.631s0.381-0.607,0.852-0.607h2.244c0.47,0,0.852,0.272,0.852,0.607
			S3.565,15.238,3.096,15.238z"></path>
      </g>
      <g>
        <path d="M31.148,17.977h-2.244c-0.47,0-0.852-0.272-0.852-0.607s0.382-0.607,0.852-0.607h2.244c0.471,0,0.852,0.272,0.852,0.607
			S31.619,17.977,31.148,17.977z"></path>
      </g>
      <g>
        <path d="M25.538,17.977h-2.244c-0.47,0-0.851-0.272-0.851-0.607s0.381-0.607,0.851-0.607h2.244c0.47,0,0.852,0.272,0.852,0.607
			S26.008,17.977,25.538,17.977z"></path>
      </g>
      <g>
        <path d="M19.928,17.977h-2.244c-0.47,0-0.852-0.272-0.852-0.607s0.382-0.607,0.852-0.607h2.244c0.47,0,0.852,0.272,0.852,0.607
			S20.397,17.977,19.928,17.977z"></path>
      </g>
      <g>
        <path d="M14.316,17.977h-2.244c-0.47,0-0.852-0.272-0.852-0.607s0.382-0.607,0.852-0.607h2.244c0.471,0,0.852,0.272,0.852,0.607
			S14.787,17.977,14.316,17.977z"></path>
      </g>
      <g>
        <path d="M8.706,17.977H6.462c-0.47,0-0.852-0.272-0.852-0.607s0.382-0.607,0.852-0.607h2.244c0.471,0,0.852,0.272,0.852,0.607
			S9.177,17.977,8.706,17.977z"></path>
      </g>
      <g>
        <path d="M3.096,17.977H0.852C0.381,17.977,0,17.705,0,17.37s0.381-0.607,0.852-0.607h2.244c0.47,0,0.852,0.272,0.852,0.607
			S3.565,17.977,3.096,17.977z"></path>
      </g>
      <g>
        <path d="M31.148,20.715h-2.244c-0.47,0-0.852-0.272-0.852-0.607c0-0.335,0.382-0.607,0.852-0.607h2.244
			c0.471,0,0.852,0.272,0.852,0.607C32,20.443,31.619,20.715,31.148,20.715z"></path>
      </g>
      <g>
        <path d="M25.538,20.715h-2.244c-0.47,0-0.851-0.272-0.851-0.607c0-0.335,0.381-0.607,0.851-0.607h2.244
			c0.47,0,0.852,0.272,0.852,0.607C26.39,20.443,26.008,20.715,25.538,20.715z"></path>
      </g>
      <g>
        <path d="M19.928,20.715h-2.244c-0.47,0-0.852-0.272-0.852-0.607c0-0.335,0.382-0.607,0.852-0.607h2.244
			c0.47,0,0.852,0.272,0.852,0.607C20.779,20.443,20.397,20.715,19.928,20.715z"></path>
      </g>
      <g>
        <path d="M14.316,20.715h-2.244c-0.47,0-0.852-0.272-0.852-0.607c0-0.335,0.382-0.607,0.852-0.607h2.244
			c0.471,0,0.852,0.272,0.852,0.607C15.168,20.443,14.787,20.715,14.316,20.715z"></path>
      </g>
      <g>
        <path d="M8.706,20.715H6.462c-0.47,0-0.852-0.272-0.852-0.607c0-0.335,0.382-0.607,0.852-0.607h2.244
			c0.471,0,0.852,0.272,0.852,0.607C9.558,20.443,9.177,20.715,8.706,20.715z"></path>
      </g>
      <g>
        <path d="M3.096,20.715H0.852C0.381,20.715,0,20.443,0,20.108c0-0.335,0.381-0.607,0.852-0.607h2.244
			c0.47,0,0.852,0.272,0.852,0.607C3.947,20.443,3.565,20.715,3.096,20.715z"></path>
      </g>
      <g>
        <path d="M31.148,23.454h-2.244c-0.47,0-0.852-0.272-0.852-0.607s0.382-0.607,0.852-0.607h2.244c0.471,0,0.852,0.272,0.852,0.607
			S31.619,23.454,31.148,23.454z"></path>
      </g>
      <g>
        <path d="M25.538,23.454h-2.244c-0.47,0-0.851-0.272-0.851-0.607s0.381-0.607,0.851-0.607h2.244c0.47,0,0.852,0.272,0.852,0.607
			S26.008,23.454,25.538,23.454z"></path>
      </g>
      <g>
        <path d="M19.928,23.454h-2.244c-0.47,0-0.852-0.272-0.852-0.607s0.382-0.607,0.852-0.607h2.244c0.47,0,0.852,0.272,0.852,0.607
			S20.397,23.454,19.928,23.454z"></path>
      </g>
      <g>
        <path d="M14.316,23.454h-2.244c-0.47,0-0.852-0.272-0.852-0.607s0.382-0.607,0.852-0.607h2.244c0.471,0,0.852,0.272,0.852,0.607
			S14.787,23.454,14.316,23.454z"></path>
      </g>
      <g>
        <path d="M8.706,23.454H6.462c-0.47,0-0.852-0.272-0.852-0.607s0.382-0.607,0.852-0.607h2.244c0.471,0,0.852,0.272,0.852,0.607
			S9.177,23.454,8.706,23.454z"></path>
      </g>
      <g>
        <path d="M3.096,23.454H0.852C0.381,23.454,0,23.182,0,22.847s0.381-0.607,0.852-0.607h2.244c0.47,0,0.852,0.272,0.852,0.607
			S3.565,23.454,3.096,23.454z"></path>
      </g>
    </g>
  </g>
</svg>